<svg width="369" height="261" viewBox="0 0 369 261" fill="none" xmlns="http://www.w3.org/2000/svg">
<path fill-rule="evenodd" clip-rule="evenodd" d="M290.696 153.715C288.606 152.472 287.276 151.407 284.615 151.407C280.625 116.084 237.679 118.569 220.577 91.7658C217.156 86.2632 215.446 74.7254 211.075 70.2878C203.094 62.4776 212.025 65.1402 203.094 60.8801C191.883 55.5549 174.4 41.5321 160.339 36.9169C122.524 24.4916 110.742 63.7201 87.5589 79.873C73.307 89.8133 56.3947 93.5409 47.2735 109.871C38.5323 125.314 41.5727 142.532 39.8625 159.395C38.9124 169.69 29.4111 188.861 39.6725 198.446C49.5538 207.499 82.8082 200.931 95.3499 199.866C125.184 197.204 155.208 194.541 185.232 191.878C221.337 188.506 246.04 173.063 277.584 159.928" fill="url(#paint0_linear)"/>
<path fill-rule="evenodd" clip-rule="evenodd" d="M0.858149 224.109C1.84711 184.418 56.0269 112.313 102.508 96.7669C118.134 91.6401 141.671 99.7437 154.725 90.1517C171.142 78.4098 170.944 57.0758 190.13 42.0263C258.962 -11.7221 319.091 90.3171 330.365 109.666C333.53 114.959 332.343 122.897 336.299 127.858C340.848 133.647 350.144 134.97 355.682 139.269C369.923 150.515 371.308 162.919 365.967 178.134C360.231 194.837 349.946 201.948 331.749 209.556C295.751 224.44 258.962 224.109 219.601 224.109C189.339 224.109 107.718 252.97 79.0381 259.916C79.0381 259.916 -0.130813 263.8 0.858149 224.109Z" fill="url(#paint1_linear)"/>
<path d="M335.443 169.383L183.133 203.682L76.1501 196.823L176.591 182.27L316.705 163.357L335.181 165.904C337.484 166.198 337.641 168.893 335.443 169.383Z" fill="url(#paint2_linear)"/>
<path d="M146.495 186.141C145.658 186.484 119.54 190.992 119.54 190.992C119.54 190.992 191.351 199.027 202.29 197.46C213.229 195.892 333.14 169.922 333.14 169.922L342.98 167.521C344.288 167.178 344.184 165.561 342.823 165.365L337.536 164.631L341.2 142.728L299.171 123.962C299.171 123.962 249.814 122.394 224.272 138.024C198.731 153.655 198.678 152.087 198.678 152.087" fill="url(#paint3_linear)"/>
<path d="M245.889 156.938C245.889 156.938 251.908 156.252 253.164 164.582C254.473 172.911 252.85 187.415 245.994 190.453C239.137 193.491 228.46 191.286 228.46 191.286L225.005 185.112C225.005 185.161 234.008 157.379 245.889 156.938Z" fill="#425486"/>
<path d="M312.989 165.415C312.884 166.101 311.576 173.303 317.228 173.744C320.788 174.038 324.033 174.283 325.708 168.991C327.33 163.7 328.639 153.704 323.091 150.911C318.171 148.51 313.879 159.29 312.989 165.415Z" fill="#425486"/>
<path d="M322.41 162.916C322.567 163.553 320.997 170.804 326.65 171.245C330.209 171.539 333.454 171.784 335.129 166.492C336.751 161.201 338.06 151.205 332.512 148.412C327.592 146.011 319.27 150.519 322.41 162.916Z" fill="#425486"/>
<path d="M211.449 80.1081C211.449 80.1081 146.914 75.2082 136.132 86.2819C136.132 86.2819 130.165 89.0258 125.507 104.852C120.796 120.679 116.452 155.958 116.975 165.66C117.499 175.361 115.824 171.245 116.347 173.989C116.818 176.733 119.017 180.359 121.215 182.074C123.413 183.789 194.386 192.364 199.254 189.865C200.929 189.032 195.014 137.289 199.097 105.734C202.708 77.7561 211.449 80.1081 211.449 80.1081Z" fill="#FDB5B5"/>
<path d="M125.559 172.421L116.923 163.504C117.237 173.793 115.929 172.274 116.295 174.087C116.766 176.831 119.226 182.956 121.424 184.671C123.623 186.386 191.717 192.168 199.202 189.963C199.934 189.767 193.34 191.09 195.433 168.159L169.944 176.047C148.746 177.076 125.559 172.421 125.559 172.421Z" fill="#FB8989"/>
<path d="M248.663 170.559C247.93 168.599 246.674 167.276 245.104 167.129C242.225 166.885 239.451 170.706 238.875 175.704C238.3 180.653 240.184 184.916 243.062 185.161C244.633 185.308 246.203 184.181 247.407 182.319C248.768 181.878 250.024 179.575 250.338 176.635C250.652 173.695 249.919 171.147 248.663 170.559Z" fill="url(#paint4_linear)"/>
<path d="M325.08 159.731C324.765 158.408 324.19 157.526 323.457 157.428C322.148 157.281 320.945 159.829 320.683 163.161C320.421 166.493 321.259 169.285 322.567 169.481C323.3 169.579 323.98 168.844 324.504 167.57C325.132 167.277 325.655 165.709 325.812 163.798C325.917 161.789 325.603 160.123 325.08 159.731Z" fill="url(#paint5_linear)"/>
<path d="M347.272 111.565C347.272 111.565 276.717 92.8967 240.655 84.861C204.593 76.8252 209.617 80.1081 209.617 80.1081C195.014 78.5402 194.543 109.409 193.183 141.111C191.351 183.348 194.177 188.64 194.805 189.228C196.846 191.188 198.364 190.061 198.364 190.061L229.245 184.23H236.049C234.741 168.942 241.597 160.025 241.597 160.025C249.71 151.401 254.577 161.397 255.572 163.945C256.566 166.444 256.88 180.065 256.88 180.065L259.811 178.105L316.705 167.815L319.793 168.599L319.845 168.501C319.845 168.501 319.845 152.381 324.399 151.254C328.953 150.127 328.325 161.544 328.325 163.504C328.325 164.337 328.22 165.611 328.063 166.787L330.418 166.248C330.523 162.279 331.151 151.303 334.71 150.421C339.002 149.294 338.374 160.711 338.374 162.671C338.374 163.161 338.322 163.798 338.269 164.484C338.95 164.288 344.445 162.818 345.701 162.818C347.01 162.818 351.25 158.065 351.25 158.065C351.25 158.065 352.244 150.813 352.244 132.733C352.244 114.652 347.272 111.565 347.272 111.565Z" fill="url(#paint6_linear)"/>
<path d="M334.867 158.702C334.553 157.477 334.029 156.644 333.349 156.595C332.145 156.448 330.994 158.849 330.732 161.936C330.47 165.023 331.255 167.668 332.512 167.815C333.192 167.913 333.82 167.178 334.343 166.052C334.919 165.807 335.443 164.337 335.547 162.524C335.704 160.662 335.39 159.094 334.867 158.702Z" fill="url(#paint7_linear)"/>
<path d="M195.957 155.321C195.957 155.321 224.168 122.541 233.013 123.423L340.625 131.214C340.625 131.214 346.801 133.419 349.418 138.465C349.418 138.465 351.093 128.176 350.726 125.383C350.046 120.434 348.58 114.995 348.58 114.995L241.807 90.0548L215.794 84.763C215.794 84.763 204.174 83.293 202.342 92.6517C195.015 130.185 195.957 155.321 195.957 155.321Z" fill="url(#paint8_linear)"/>
<path d="M125.716 103.382C122.157 115.485 118.598 139.788 117.393 154.929C117.393 154.929 117.289 157.33 119.906 157.624C122.523 157.918 161.203 160.662 174.183 160.662C187.163 160.662 189.466 158.457 191.403 153.41C193.339 148.412 193.182 103.529 198.521 89.9078C199.987 86.1349 200.824 84.812 200.824 84.812C145.919 80.7941 136.132 87.3599 136.132 87.3599C133.096 89.2708 128.595 93.6807 125.716 103.382Z" fill="url(#paint9_linear)"/>
<path d="M193.34 164.484L176.381 169.922C176.381 169.922 171.88 173.94 170.938 175.361C170.938 175.361 172.613 177.566 177.062 177.566C181.511 177.566 186.012 177.762 190.042 175.165C194.072 172.568 195.381 169.334 195.328 168.501C195.224 167.668 196.218 164.827 193.34 164.484Z" fill="#A1A9C3"/>
<path d="M116.923 163.504L122.785 167.326C123.413 167.718 123.832 168.306 124.094 168.942L125.088 171.637C125.088 171.637 123.622 173.254 121.163 173.254C118.703 173.254 116.452 172.421 116.452 172.421L116.923 163.504Z" fill="#717FA4"/>
<path d="M128.909 95.4446C128.909 95.4446 111.27 94.5626 106.56 98.2375C101.849 101.912 102.477 113.819 102.477 113.819C102.477 113.819 103.995 116.759 106.769 117.102C106.769 117.102 107.502 118.278 107.711 114.652C107.921 110.928 109.177 105.244 110.695 102.892C112.213 100.54 112.213 100.491 112.213 100.491C112.213 100.491 113.521 99.4135 126.972 99.5605L128.909 95.4446Z" fill="url(#paint10_linear)"/>
<path d="M199.359 97.9926C199.359 97.9926 202.708 95.7877 197.788 95.4447C194.962 95.2487 185.593 95.7877 181.72 96.1796C177.847 96.5226 174.863 99.1196 174.863 105.538C174.863 111.957 174.863 117.641 174.863 117.641C174.863 117.641 174.654 118.915 177.219 118.376C179.783 117.837 181.929 117.641 182.557 116.171C183.186 114.701 185.331 100.59 185.331 100.59C185.331 100.59 185.75 99.6585 187.477 99.6585C189.205 99.6585 198.835 99.1196 198.835 99.1196C198.835 99.1196 199.097 100.345 199.359 97.9926Z" fill="url(#paint11_linear)"/>
<ellipse cx="179.469" cy="173.205" rx="5.23401" ry="4.89987" fill="#BFD3EB"/>
<ellipse rx="5.20938" ry="4.92619" transform="matrix(0.965821 -0.259208 0.293722 0.955891 120.938 169.824)" fill="#BFD3EB"/>
<path d="M331.831 104.901L278.654 91.4268L228.041 82.3131L339.787 109.507L331.831 104.901Z" fill="#FB8989"/>
<defs>
<linearGradient id="paint0_linear" x1="35.0823" y1="34.4145" x2="35.0823" y2="202.972" gradientUnits="userSpaceOnUse">
<stop offset="0.0534759" stop-color="#DEEAF7"/>
<stop offset="1" stop-color="#DEEAF7" stop-opacity="0.01"/>
</linearGradient>
<linearGradient id="paint1_linear" x1="0.878581" y1="26.7845" x2="0.878581" y2="260.458" gradientUnits="userSpaceOnUse">
<stop stop-color="#CCE1F4"/>
<stop offset="0.352" stop-color="#D1E3F5"/>
<stop offset="0.738" stop-color="#DEEAF7"/>
</linearGradient>
<linearGradient id="paint2_linear" x1="76.0557" y1="163.347" x2="76.0557" y2="203.7" gradientUnits="userSpaceOnUse">
<stop offset="0.2943" stop-color="#717FA4"/>
<stop offset="0.488" stop-color="#7482A6" stop-opacity="0.7256"/>
<stop offset="0.6322" stop-color="#7D8BAE" stop-opacity="0.5212"/>
<stop offset="0.7605" stop-color="#8C9CBB" stop-opacity="0.3394"/>
<stop offset="0.8794" stop-color="#A1B2CE" stop-opacity="0.1708"/>
<stop offset="0.991" stop-color="#BCCFE6" stop-opacity="0.0127"/>
<stop offset="1" stop-color="#BFD2E8" stop-opacity="0.01"/>
</linearGradient>
<linearGradient id="paint3_linear" x1="119.567" y1="197.632" x2="343.907" y2="197.632" gradientUnits="userSpaceOnUse">
<stop offset="0.1589" stop-color="#425486"/>
<stop offset="0.9422" stop-color="#717FA4"/>
</linearGradient>
<linearGradient id="paint4_linear" x1="238.783" y1="185.14" x2="250.373" y2="185.14" gradientUnits="userSpaceOnUse">
<stop offset="0.2209" stop-color="#ACCEEF"/>
<stop offset="0.4959" stop-color="#9EBCE0"/>
<stop offset="0.5916" stop-color="#8FB1DA"/>
<stop offset="0.7763" stop-color="#6693CA"/>
<stop offset="0.8189" stop-color="#5C8CC6"/>
</linearGradient>
<linearGradient id="paint5_linear" x1="320.627" y1="169.445" x2="325.829" y2="169.445" gradientUnits="userSpaceOnUse">
<stop offset="0.2209" stop-color="#ACCEEF"/>
<stop offset="0.4959" stop-color="#9EBCE0"/>
<stop offset="0.5916" stop-color="#8FB1DA"/>
<stop offset="0.7763" stop-color="#6693CA"/>
<stop offset="0.8189" stop-color="#5C8CC6"/>
</linearGradient>
<linearGradient id="paint6_linear" x1="192.576" y1="190.357" x2="352.164" y2="190.357" gradientUnits="userSpaceOnUse">
<stop offset="0.193" stop-color="#FA6B6B"/>
<stop offset="1" stop-color="#FB8787"/>
</linearGradient>
<linearGradient id="paint7_linear" x1="330.706" y1="167.429" x2="335.582" y2="167.429" gradientUnits="userSpaceOnUse">
<stop offset="0.2209" stop-color="#ACCEEF"/>
<stop offset="0.4959" stop-color="#9EBCE0"/>
<stop offset="0.5916" stop-color="#8FB1DA"/>
<stop offset="0.7763" stop-color="#6693CA"/>
<stop offset="0.8189" stop-color="#5C8CC6"/>
</linearGradient>
<linearGradient id="paint8_linear" x1="195.911" y1="155.304" x2="350.757" y2="155.304" gradientUnits="userSpaceOnUse">
<stop offset="0.6087" stop-color="#717FA4"/>
<stop offset="0.7361" stop-color="#717FA4"/>
</linearGradient>
<linearGradient id="paint9_linear" x1="117.379" y1="83.5699" x2="117.379" y2="160.704" gradientUnits="userSpaceOnUse">
<stop offset="0.126" stop-color="#9EBCE0"/>
<stop offset="0.4521" stop-color="#5E90CC"/>
<stop offset="0.6901" stop-color="#4E6EA5"/>
</linearGradient>
<linearGradient id="paint10_linear" x1="102.432" y1="95.3334" x2="102.432" y2="117.259" gradientUnits="userSpaceOnUse">
<stop offset="0.3149" stop-color="#FA6B6B"/>
<stop offset="0.4642" stop-color="#FB8686"/>
<stop offset="0.7094" stop-color="#FB8989"/>
</linearGradient>
<linearGradient id="paint11_linear" x1="174.844" y1="95.3815" x2="174.844" y2="118.467" gradientUnits="userSpaceOnUse">
<stop offset="0.3149" stop-color="#FA6B6B"/>
<stop offset="0.4642" stop-color="#FB8686"/>
<stop offset="0.7094" stop-color="#FB8989"/>
</linearGradient>
</defs>
</svg>
	