<svg xmlns="http://www.w3.org/2000/svg" xmlns:xlink="http://www.w3.org/1999/xlink" width="534" height="422" fill="none" xmlns:v="https://vecta.io/nano"><style><![CDATA[.B{opacity:.85}.C{fill:#f06b6c}]]></style><g clip-path="url(#Aj)"><path d="M278.306 82.874c-38.377-3.782-58.231 17.426-83.464 35.374-25.983 18.461-18.986 25.957-82.915 39.248-46.875 9.702-60.516 56.943-61.704 75.06l419.501 8.245C374.71 162.709 381.261 93.014 278.306 82.874z" fill="url(#A)"/><path d="M196.554 177.929H153.49v55.461h43.064v-55.461z" fill="url(#B)"/><path d="M169.162 177.929H153.49v55.149h15.672v-55.149z" fill="url(#C)"/><path d="M153.498 210.346h-48.232v23.675h48.232v-23.675z" fill="url(#D)"/><path d="M52.018 245.619s106.606 73.88 209.822 72.137c26.236 1.39 106.716-13.611 223.311-62.528-112.768-34.944-364.28-19.969-365.081-20.988l-68.052 11.379z" fill="url(#E)"/><path opacity=".99" d="M65.271 251.784l50.407-11.016-5.429-5.837c.843 0 57.742-1.053 73.886-1.592 1.568-.059 1.434-.269-.084.177-3.887-.91-104.211 23.279-104.422 24.231-4.789.657-12.646-.623-12.646-.623l-23.547-2.67 21.835-2.67z" fill="url(#F)"/><path d="M63.273 232.977c-.278.943 3.44.648 5.539-.775 2.993-1.937 8.228-1.356 10.656 1.406a15.76 15.76 0 0 0 2.529 2.788c.228.185.495.317.781.384s.584.068.871.003a1.94 1.94 0 0 0 1.324-1.061c.228 2.527 1.222 3.218 3.161 3.706s7.714.32 8.641.371a26.81 26.81 0 0 1-3.625-2.19c-22.712-15.607-30.249-3.546-29.878-4.632z" fill="url(#G)"/><path d="M71.291 208.611l47.414 5.188c.202-.143-25.022-6.359-25.022-6.359l-42.701.994 20.309.177z" fill="url(#H)"/><path d="M66.494 244.456c3.878.615 9.426-2.467 9.805-6.308a3.19 3.19 0 0 1 .379-1.609 2.63 2.63 0 0 1 1.273-.842c-.641.253 5.261-2.24 19.045-3.899 7.132-.843 14.534-2.064 21.372.118 1.382.438 4.544 5.12 5.623 6.072 2.082 1.861-.202 5.668-4.873 4.7-.531 2.712 1.34 3.697-1.121 3.209.978-.413-1.13 1.777-.093 2.013-3.76.488-31.244 7.057-37.196 7.327-3.954.16-23.016-1.204-23.564-1.246-.683.244-4.982-.523-4.561-4.7" fill="url(#I)"/><path d="M74.823 211.854l-1.189 38.305c-.101 1.718-2.167 1.246-2.167 1.246.177.935-23.606-1.128-25.351-1.322-.801-.093-1.762-.118-2.529-.286a2.25 2.25 0 0 1-1.106-.635 2.24 2.24 0 0 1-.581-1.134l-.489-3.79c-1.357-11.8 1.332-24.029 1.914-27.684s3.693-6.873 3.693-6.873c1.054-1.583 27.231-3.647 34.431-.286.995.471-6.239 2.585-6.627 2.459z" fill="url(#J)"/><path d="M117.457 236.961c-1.88 0-3.474 1.945-3.474 5.053s1.526 5.652 3.423 5.652 3.423-2.527 3.423-5.652-1.484-5.053-3.372-5.053z" fill="url(#K)"/><path d="M69.377 210.531c3.018-3.192 21.793-1.743 21.793-1.743l3.988-1.348 18.387 3.369 1.922 1.685 8.195.8c.412-.044.828.053 1.178.274a1.84 1.84 0 0 1 .753.947s2.647 2.695 2.529 17.359v8.228c.093 1.045-1.189 2.123-1.189 2.123l-4.966 1.549h-.387c0 .068.101-4.918 0-6.426s-3.761-1.196-3.938-.674c-.497 1.095-.994 7.875-.994 7.816l-24.837 4.59v-6.342-.084c.061-.48-.067-.965-.356-1.352a1.87 1.87 0 0 0-1.196-.728c-.944-.093-1.894-.11-2.841-.051-1.13.068-1.273 1.685-1.273 1.685l-1.079 7.765c.11 0-9.046 1.23-10.235 1.499a19.96 19.96 0 0 1-5.581.177l.126-41.118z" class="C"/><path d="M120.143 242.301c.074-1.552-.465-2.838-1.204-2.874s-1.399 1.194-1.474 2.746.465 2.839 1.205 2.874 1.399-1.194 1.473-2.746z" fill="url(#L)"/><path d="M119.639 242.271c.051-1.055-.394-1.933-.994-1.962s-1.128.802-1.179 1.857.394 1.933.994 1.962 1.128-.802 1.179-1.857z" fill="url(#M)"/><path d="M118.815 242.174c0 .842-.405 1.542-.844 1.542h-.109c-.272-.476-.404-1.018-.38-1.565a2.89 2.89 0 0 1 .515-1.526.43.43 0 0 1 .152 0c.396.025.699.682.666 1.549z" fill="#425685"/><path opacity=".57" d="M85.109 250.083l1.189-8.06a1.48 1.48 0 0 1 1.13-1.196 7.49 7.49 0 0 1 3.532.168c1.071.388.936 2.064.936 2.064l.051 6.047.371-.059-.059-8.591c0-2.308-3.145-2.181-4.831-2.08s-1.956 2.417-1.956 2.417l-.894 9.349.531-.059z" fill="url(#N)"/><path opacity=".57" d="M116.791 244.507l.843-6.317c.093-.505.683-.674.683-.674a5.07 5.07 0 0 1 2.673.144c.843.337.708 1.482.708 1.482l-.051 4.641h.396l.059-6.94c0-2.013-2.444-1.761-3.76-1.761s-1.475 2.098-1.475 2.098l-.59 7.335.514-.008z" fill="url(#O)"/><path d="M90.212 247.529c.157-2.143-.517-3.939-1.506-4.011s-1.918 1.606-2.075 3.749.517 3.94 1.506 4.012 1.918-1.606 2.076-3.75z" fill="url(#P)"/><path d="M90.572 247.566c.114-1.596-.442-2.936-1.241-2.993s-1.538 1.191-1.652 2.788.442 2.936 1.241 2.992 1.538-1.191 1.652-2.787z" fill="url(#Q)"/><path opacity=".13" d="M75.894 209.016H64.766v43.223h11.128v-43.223z" fill="url(#R)"/><path d="M69.655 211.205c1.509-1.196 8.793-1.482 8.793-1.482l46.175 4.96s1.754 7.033 1.754 9.922c.055 1.46-.264 2.909-.928 4.211-.683-2.628-2.731-2.628-4.62-2.628l-37.246-.244c-2.142.101-4.167 1.003-5.674 2.527l-8.54 8.296" fill="url(#S)"/><path d="M45.443 241.046l16.92.985 6.213-2.619c-.16 4.977-4.89 4.152-6.584 4.034s-.691-.581-.691-.581l-15.091-.986a1.9 1.9 0 0 1-1.113.481 20.25 20.25 0 0 1-3.313-.607c-1.214-.396-.531-2.586-.531-2.586l4.19 1.879z" fill="url(#T)"/><path d="M44.169 213.378c1.197-3.259 2.833-3.664 2.833-3.664 5.261-.387 20.453-.387 22.763 0 1.686.683 1.391 1.533 1.34 1.533l-1.754 25.52s-.489-.261-3.575.589c-1.737.43-1.922 1.196-3.431 2.266l-16.861-.766c-.405-.843-4.434-3.117-4.434-3.117.303-10.258 1.644-18.268 3.119-22.361z" fill="url(#U)"/><path d="M43.815 214.742h-3.996c-1.29 2.216-1.61 6.78-1.61 6.78-1.686-.059-2.091-.581-2.091-.581a15.24 15.24 0 0 1 .379-5.761c.843-2.636 4.881-2.13 4.881-2.13h3.052l-.615 1.692z" class="C"/><path d="M40.215 213.774a5.33 5.33 0 0 0-1.779.968h.936s-1.366 1.297-1.29 6.738c-1.585-.084-1.947-.572-1.947-.572a15.24 15.24 0 0 1 .379-5.761c.843-2.636 4.881-2.131 4.881-2.131h3.035l-.177.505-4.038.253z" fill="url(#V)"/><path d="M47.019 209.672a81.03 81.03 0 0 0-1.863 22.454l2.799.371-.236 2.687 9.628.463.27-2.847 9.914.354.11-1.162 2.125-22.286-22.746-.034z" fill="url(#W)"/><path d="M67.059 242.022c-1.366 1.264-3.229.902-4.477.843s-.287-.733-.219-.893.379-1.937.379-1.937l5.682-1.735c.455 1.642.008 2.459-1.366 3.722z" fill="url(#X)"/><path d="M41.32 240.304c.177 1.154 2.285 1.685 3.153 1.466s.97-.733.97-.733c-.211-.842-.902-1.255-1.585-1.887a20.77 20.77 0 0 0-2.453-1.684 10.26 10.26 0 0 0-.084 2.838z" fill="url(#Y)"/><path d="M67.843 236.767h-4.864a10.21 10.21 0 0 0 3.128-4.211c1.113-2.78 2.403-9.661 2.529-9.922l-.793 14.133z" fill="url(#Z)"/><path d="M128.198 240.136c.036.433-.058.866-.27 1.246a2.2 2.2 0 0 1-.919.885l-4.966 1.549" class="C"/><path d="M63.332 249.207c-.437.215-.907.355-1.391.412l-16.153-.909c-.698-.128-1.368-.376-1.981-.733l19.525 1.23z" fill="url(#a)"/><path d="M48.334 247.977l8.431.59c.044.002.089-.005.131-.02a.35.35 0 0 0 .112-.07c.032-.031.058-.068.076-.109s.027-.085.026-.13v-1.187c.002-.086-.029-.169-.087-.232s-.139-.101-.225-.105l-8.431-.463a.32.32 0 0 0-.13.022c-.041.016-.079.04-.111.07a.34.34 0 0 0-.076.108c-.018.04-.028.084-.029.128v1.078c0 .084.032.164.091.223a.32.32 0 0 0 .221.097z" fill="#a1a7c2"/><path d="M43.807 214.743c0 .126 1.332 2.855 1.332 2.855l-.261 2.931c.248.538.597 1.024 1.029 1.432.072.082.161.148.26.193a.77.77 0 0 0 .634 0c.1-.045.188-.111.26-.193.042-.169-1.172-2.99-1.172-2.99l1.433-.901c-.126-.91-2.791-4.885-2.917-5.054l-.599 1.727z" fill="url(#b)"/><path d="M47.019 209.681c7.006-.674 22.763 0 22.763 0l-.363 3.773c-6.483-.952-23.049-.665-23.049-.665l.649-3.108z" fill="#717fa2"/><path d="M68.129 214.751c0 .059-1.585 7.892-.169 7.319s1.459-5.601 1.475-6.106.843-.371 1.383-.59.531-1.339.531-1.339c-.143-.185-3.221.657-3.221.716z" class="C"/><path d="M70.33 214.263c-1.163 0-1.273 1.246-1.315 2.215-.035 1.608-.201 3.211-.497 4.792-.371 1.39-2.757 1.457-2.757 1.457.029-2.737.218-5.471.565-8.186.464-2.157 5.058-.506 5.058-.506s.337.245-1.054.228z" fill="url(#c)"/><path d="M42.492 226.896c.953-14.545 4.477-16.845 4.477-16.845-3.887 1.112-4.477 16.845-4.477 16.845z" fill="url(#d)"/><path d="M433.084 164.537h-25.713v66.705h25.713v-66.705z" fill="#deebf9"/><path d="M392.17 118.038h-7.275v96.359h7.275v-96.359z" fill="url(#e)"/><path d="M414.823 116.555h-29.928v114.687h29.928V116.555z" fill="url(#f)"/><path d="M389.11 116.521h-6.812v114.906h6.812V116.521z" fill="#fce2e6"/><path d="M358.995 155.837h-24.137v75.683h24.137v-75.683z" fill="url(#g)"/><path d="M344.596 155.837h-9.738v75.262h9.738v-75.262z" fill="url(#h)"/><path d="M382.146 174.804h-22.78v56.017h22.78v-56.017z" fill="url(#i)"/><path d="M382.146 174.804l-3.507-7.142h-16.035l-3.238 7.142h22.78z" fill="url(#j)"/><path d="M359.366 174.804l6.129.009 2.715-7.176-5.606.025-3.238 7.142z" fill="#f9d8d8"/><path d="M414.612 175.587c2.108 4.666 17.216 34.456 18.86 31.87l-18.657 23.785-.203-55.655z" fill="#bdd8f2"/><path d="M347.294 214.195l-9.131 1.171s-1.357-.126-2.74 5.424c-1.627 6.738 1.383 16.6 1.383 16.6s1.585 2.712 3.305 1.904 4.072-2.148 4.072-2.148" fill="url(#k)"/><path d="M377.88 244.979c-.023-.14-.057-.278-.101-.413v.396l.101.017z" fill="#f48f90"/><path d="M487.192 248.045a31.42 31.42 0 0 1-1.442 3.225s-13.388 1.811-37.643-.328l-1.989.168s.725 1.129-3.794.969-15.175-1.289-15.175-1.289l-1.071-2.425s-.919 2.425-4.569 2.265-3.077-2.425-3.077-2.425l-78.347-8.869-.792-3.613 101.581 8.759 3.794 3.706s41.226 1.474 42.524-.143z" fill="url(#l)"/><path d="M455.535 209.192s-13.759-2.232-21.718-2.232-64.806 6.326-64.806 6.326-1.079-1.129-5.429-.843l-19.02 1.491s-3.254 1.44-3.44 3.066c-1.498 1.469-2.462 3.396-2.74 5.474-.177 3.066-.177 12.743.919 13.383s101.497 8.709 101.497 8.709l3.802 3.706s31.126 2.097 41.799 1.129c0 0 15.252-1.34 10.497-8.869-4.275-6.94-16.137-21.578-41.361-31.34z" fill="url(#m)"/><path d="M445.73 216.394c-15.108-7.993-32.34-6.738-32.34-6.738l-72.951 8.136a8.6 8.6 0 0 0-1.981 4.649c-.185 3.065-.185 12.734.911 13.383s101.505 8.7 101.505 8.7l3.793 3.714s20.909 1.407 34.33 1.382c7.503-2.392 6.551-6.974 6.551-6.974 0-6.721-24.77-18.251-39.818-26.252z" class="C"/><path d="M442.998 222.449l-5.623 7.9s-3.895-1.347-12.115-1.735l-17.418-.581.439-9.037s23.117-1.659 34.717 3.453zm-48.56-2.603l-52.793 2.603-.211 5.011 52.27.388.734-8.002z" fill="url(#n)"/><path d="M399.378 219.451l-.438 8.397h3.364l.32-8.481-3.246.084z" fill="url(#o)"/><path d="M338.399 229.086l80.454 1.684-.32 2.797-80.091-2.578-.043-1.903zm159.146 12.398s-18.008 1.49-27.096-.236-29.507-7.235-38.292-8.684v2.898l34.068 7.512c9.619 2.173 19.045.96 23.479 1.062a44.86 44.86 0 0 0 8.296-.649l-.455-1.903z" fill="#ef4849"/><path d="M489.156 236.228c.219.287 1.627 2.796 1.627 2.796l3.246-.092-1.433-2.712-3.44.008z" fill="url(#p)"/><path d="M471.123 216.688l-7.301-3.108c-1.829-.682-11.803.287-11.803.287 0 .286-1.408.48-.43 1.162s14.223 9.155 14.223 9.155 3.65-.901 6.154.379 7.47 4.338 11.803 4.152c1.931-.092 2.588-.362 2.74-.64-4.696-4.347-9.855-8.166-15.386-11.387z" fill="#f6b2b3"/><path d="M369.264 212.831s0 1.415-.801 1.415-12.773 1.465-12.773 1.465-2.124-2.139 0-2.602a39.47 39.47 0 0 1 13.574-.278z" fill="url(#q)"/><path d="M467.203 224.976c-.531.101 9.838 6.847 9.838 6.847l2.412-1.794-6.745-4.329a7.79 7.79 0 0 0-5.505-.724z" fill="url(#r)"/><path d="M448.107 211.5s18.623 10.949 27.686 12.541c3.432.615 5.219.455 5.826-.152-7.898-6.188-16.694-11.138-26.084-14.68 0 0-9.595-1.474-7.428 2.291z" fill="url(#s)"/><path opacity=".99" d="M245.763 230.341l209.08 25.578c24.711 2.569 52.844-3.369 11.955-6.451s-219.197-22.74-219.197-22.74l-1.838 3.613z" fill="url(#t)"/><path d="M339.656 215.096l-91.439 9.661c-.578.162-1.078.523-1.413 1.02s-.483 1.096-.417 1.692c0 .842-.506 1.541-.219 2.181l90.646 7.631s-2.057-10.638-.303-17.317c.506-1.945 1.973-2.779 3.145-4.868z" fill="url(#u)"/><path d="M336.637 235.588l.329 2.139-90.798-8.11-.211-.767 90.68 6.738z" fill="url(#v)"/><path opacity=".76" d="M333.324 222.626l-.236 4.135-86.06.219.598-.96 85.698-3.394z" fill="url(#w)"/><path d="M404.352 239.184l-6.803-.379a.4.4 0 0 1-.243-.092.41.41 0 0 1-.137-.22c-.632-4.101-.345-16.196 0-19.455a21.32 21.32 0 0 1 1.863-5.753c.22-.497.447-1.002.506-1.204-.017-.058-.017-.119 0-.177 0-.379.051-.396 7.723-.977.074-.007.149.007.216.039s.123.084.163.146a.33.33 0 0 1 .063.194c0 .07-.022.138-.063.194 0 0-1.821 2.131-2.63 7.235s-.219 19.885-.211 20.078c0 .051-.011.1-.033.146a.33.33 0 0 1-.094.116c-.043.038-.094.068-.149.086s-.113.027-.171.023zm-6.458-1.078l6.053.345c-.101-2.434-.556-14.966.228-19.817a18.73 18.73 0 0 1 2.319-6.957l-6.214.539a9.28 9.28 0 0 1-.531 1.314 20.71 20.71 0 0 0-1.829 5.575c-.321 3.159-.607 14.689-.026 19.001z" fill="url(#x)"/><path d="M258.729 377.513a3.97 3.97 0 0 1 .844 0h.109c-.317-.03-.636-.03-.953 0z" fill="url(#y)"/><path d="M310.241 316.779s-13.531 28.914-24.618 60.759l-19.196 4.068c-30.823-23.17-31.362-57.525-54.066-64.566 30.08 7.319 97.88-.261 97.88-.261z" fill="url(#z)"/><path d="M322.019 316.703l8.852.842s-9.915 12.769-47.684 18.808c-17.401 2.787-21.92 5.516-44.514-6.57-5.724-3.04-21.22-12.238-32.197-14.234-1.757-.392-3.363-1.288-4.62-2.577 35.704 3.622 71.509 3.201 120.104 4.304.037.004.075 0 .112-.011a.27.27 0 0 0 .099-.052.29.29 0 0 0 .072-.087c.018-.033.029-.069.033-.107s0-.076-.011-.112-.028-.07-.052-.099-.054-.054-.087-.072a.29.29 0 0 0-.107-.033z" fill="url(#AA)"/><path d="M197.405 232.783s-3.929-1.785-13.101-3.47c-2.234.11-5.202-1.684-8.76.421-2.225 1.154-1.686 2.106-2.756 3.731-1.754 2.628-3.499 4.414-3.499 8.987-.902 2.047 3.448 8.616 5.573 12.187s3.658.421 7.048 4.312c1.964 2.258 10.959 8.305 10.959 8.305l-.741 12.136 7.208 9.147.16-48.504-2.091-7.252z" fill="url(#AB)"/><path d="M191.967 309.822c-4.78-3.049-8.599-17.922-11.196-20.028-5.202-1.937-6.104-7.302-6.525-11.193-.641-5.668.843-9.509 6.786-11.606 1.914-1.002 4.671-1.264 8.018-2.316s9.071 3.832 9.813 10.511.211 31.845.211 31.845-1.686 6.358 7.427 8.515c8.33 2.046 14.695 9.719 28.378 17.392.801 4.573 8.97 28.593 22.173 44.512-2.277-1.626-20.74-27.701-27.265-39.678-3.128-5.727-5.059-13.139-7.267-15.767-.422-2.627-13.051-5.146-22.173-8.144a38.82 38.82 0 0 1-8.38-4.043z" fill="url(#AC)"/><path d="M194.8 231.84s8.81 6.67-1.686 17.442c-6.526 6.738-14.636 1.837-9.544 4.523l6.711 10.756s6.744 2.046 7.798 10.401c.632 5.054 1.214 12.634 1.214 12.634l.059-2.266.262-40.301s-.161-6.199-.532-7.15c-1.146-4.784-.371-5.888-4.282-6.039z" fill="#fa6b6b"/><path d="M188.915 265.1s-6.314 5.255.211 10.949c1.433 3.369-5.902 1.945-7.158 2.307s-1.686-.101-2.529-2.097-.843-4.464 1.433-7.302c2.501-1.631 5.205-2.928 8.043-3.857z" fill="#f7b3b4"/><path d="M190.281 264.561c.531.269 10.96 2.889 5.404 16.002 0 0-2.529 3.942-14.535 4.574 2.285 2.316 4.882 10.039 6.846 12.768 2.968 4.051 5.252 4.784 9.712 2.737-1.382 1.575-4.51 2.889-2.976 5.567 1.113 1.996 3.718 3.31 5.143 4.995-1.796-2.417-.523-6.359-.472-9.408l-.051-20.34c0-2.99.262-10.107-.843-12.768-.582-1.314-1.222-.522-1.855-1.786-.16-1.945-6.264-3.259-6.365-2.366" fill="#ef4849"/><path opacity=".39" d="M175.705 242.764c-2.277.791 2.605 6.468 5.901 2.947-2.074.472-5.573-1.524-5.901-2.947z" fill="url(#AD)"/><path d="M180.796 247.657c1.965-.48 2.867-2.417 3.448-4.261 2.656-8.423 12.309-4.995 12.646-2.157s-1.374 5.416-3.077 7.412c-3.288 3.841-7.899 5.466-12.646 3.782a11.51 11.51 0 0 1-4.183-2.324c-1.216-1.059-2.195-2.362-2.873-3.825 1.543 2.839 6.104 4.473 9.181 3.79-1.804.994-5.362-1.633-6.205-3.208a4.91 4.91 0 0 0 1.976.739c.705.1 1.423.046 2.104-.158" fill="#fb8989"/><path d="M195.07 233.466c-1.966-.226-3.955.103-5.743.948a10.6 10.6 0 0 0-4.374 3.835c-2.647 4.043-.683 8.423-2.335 8.777s-5.354-2.207-5.354-2.207-3.448-12.196 8.54-12.827c2.9-.472 9.266 1.474 9.266 1.474z" fill="#fbd9d9"/><path d="M176.075 285.751s9.974-4.413 12.149-3.209 11.246 3.942 11.086 6.047c-1.113 13.56 1.012 23.12 4.991 22.598 2.386 1.414.261 4.211 5.143 5.196.109 0 .421.531 1.686 6.098s3.718 12.347 3.718 12.347l8.65 42.735-20.571-56.345s-5.514-6.09-9.603-9.265-6.314-8.667-7.798-10.949c-2.917-8.296-9.442-15.236-9.442-15.236" fill="#fa6b6b"/><path d="M190.281 264.561c-1.686 3.259 1.323 10.46-1.914 13.61-2.656 2.577-7.528 6.409-10.96 7.041.953.682 4.612.059 2.808-.05 6.424-.051 11.937-1.365 14.644-3.732 6.103-5.306 1.854-15.556-4.612-16.844" fill="url(#AE)"/><path d="M214.376 317.697l4.215 1.634-8.22-2.737 4.005 1.103z" fill="url(#AF)"/><path d="M209.604 330.676c-1.383-4.986-1.593-12.086-2.529-17.131 6.845 3.108 18.353 6.679 33.63 22.024 8.649 8.667 16.018 34.843 25.89 41.944l7.537 4.068h-46.166c-5.649-11.244-15.024-38.693-18.362-50.905z" fill="url(#AG)"/><path d="M198.408 185.332c-3.829-1.946-8.047-3.005-12.342-3.1-5.252-.16-4.671-.16-5.994.312s-6.846 7.673-6.846 13.77c0 2.468-.211 2.99 1.383 4.936s8.843 9.408 13.514 12.035c6.997 3.942 5.193 4.624 5.193 4.624l4.62 17.291 1.113 2.679-.582-29.748c.051 0 8.33-9.349-.059-22.799z" fill="url(#AH)"/><path d="M179.954 189.745c-2.445 5.517-3.508 11.564.902 16.55 3.6 4.102 8.481 5.786 12.941 6.679-1.914.472-3.769.994-5.624.312 5.995 3.571 8.962-1.314 11.196-6.25 10.286-23.018-13.32-24.753-19.39-17.291" fill="url(#AI)"/><path d="M313.9 318.91h-95.916c-11.247 0-20.419-9.324-20.419-20.879V58.837c0-11.454 9.122-20.837 20.419-20.837H313.9c11.271 0 20.419 9.324 20.419 20.871v239.195c0 11.521-9.148 20.845-20.419 20.845z" fill="#242f65"/><path d="M313.579 46.187h-14.214v2.712c.014 1.677-.637 3.291-1.811 4.491a6.36 6.36 0 0 1-4.453 1.91h-54.318a6.36 6.36 0 0 1-4.453-1.91c-1.174-1.199-1.825-2.813-1.811-4.491v-2.712h-14.333a12.1 12.1 0 0 0-8.492 3.638c-2.238 2.288-3.477 5.368-3.445 8.566v239.809a12.08 12.08 0 0 0 3.447 8.561c2.238 2.286 5.291 3.593 8.49 3.635h95.343c3.2-.042 6.252-1.349 8.49-3.635s3.477-5.364 3.448-8.561V58.391a12.04 12.04 0 0 0-3.415-8.561 12.06 12.06 0 0 0-8.473-3.643z" fill="url(#AJ)"/><path d="M280.691 49.817c.704 0 1.273-.581 1.273-1.297s-.569-1.297-1.273-1.297-1.273.581-1.273 1.297.57 1.297 1.273 1.297z" fill="url(#AK)"/><path d="M198.358 75.353h-1.535v11.059h1.535V75.353z" fill="url(#AL)"/><path d="M198.358 95.584h-1.535v20.332h1.535V95.584z" fill="url(#AM)"/><path d="M198.358 121.44h-1.535v20.331h1.535V121.44z" fill="url(#AN)"/><path d="M334.319 102.305h-.793V135h.793v-32.695z" fill="url(#AO)"/><path d="M314.431 317.065h-96.868c-10.454 0-18.995-8.675-18.995-19.371V57.413c0-10.688 8.49-19.371 18.995-19.371h96.868c10.445 0 18.986 8.675 18.986 19.414v240.197c-.051 10.705-8.541 19.413-18.986 19.413zM217.563 39.356c-4.748.067-9.277 2.009-12.594 5.403a17.93 17.93 0 0 0-5.111 12.705v240.247a17.93 17.93 0 0 0 5.111 12.705c3.317 3.394 7.846 5.336 12.594 5.403h96.868c9.763 0 17.704-8.136 17.704-18.108V57.464c0-9.972-7.95-18.108-17.704-18.108h-96.868z" fill="url(#AP)"/><path opacity=".42" d="M213.373 312.298h105.054s-4.51 2.215-56.292 2.114c-41.976-.059-48.762-2.114-48.762-2.114z" fill="url(#AQ)"/><path d="M271.03 381.581c-10.665-13.265 12.283-41.009 22.139-55.006 6.222-8.894 29.136-33.69 37.424-40.882 2.074-1.786 4.147-3.529 6.39-5.113 1.248-.842 1.088-.842 1.088-.842-.076-4.523-.118-11.791 0-17.822.067-5.104-.127-10.039-.211-15.16-.101-5.306.354-13.728.354-13.728-7.242-13.948-8.11-18.529-9.35-26.657-.978-6.544.422-20.938 10.067-21.309 4.324.843 5.758 4.515 6.913 8.111 1.635 5.282 3.881 10.356 6.694 15.118a97.68 97.68 0 0 0 7.587 10.41c2.201 2.721 5.581 5.989 6.686 9.265 3.237 9.374 1.812 19.245 2.824 28.838 1.003 9.113 3.431 18.091 4.595 27.263 1.087 8.422.961 17.316-2.959 25.048a47.15 47.15 0 0 1-3.904 6.367c-1.281 1.769-1.905 3.992-2.698 5.963l-5.168 12.491c-2.394 5.643-18.901 41.901-21.237 47.586H271.03v.059z" fill="url(#AR)"/><path d="M351.138 204.695l-7.073 1.406s-1.341 1.508-2.85-1.288-3.473-17.62-3.473-17.62 3.853-2.737 6.449-1.12c1.214 5.803 6.829 18.42 6.947 18.622z" fill="#fbd9d9"/><path d="M351.138 204.695c.843 2.08 3.6 7.42 5.497 8.784 4.005 2.839 6.947 9.265 6.947 9.265s-11.803-5.458-16.499-9.324-3.912-6.99-3.912-6.99l7.967-1.735z" fill="#f7b3b4"/><path d="M335.533 185.888s-2.774 8.911 0 15.716 21.801 25.999 22.897 30.96-5.64 31.441 7.714 45.944c0 0 10.792 19.523 9.131 18.832-28.732-12.507-37.205-17.619-37.205-17.619l-.253-36.435.397-10.216c.025-.051-19.787-34.616-2.681-47.182z" fill="url(#AS)"/><path opacity=".25" d="M365.394 239.942c.076-.943.304-2.425-.362-3.301s-2.251-.775-3.212-1.222a16.19 16.19 0 0 1 5.058.539 8.11 8.11 0 0 0-2.582-2.614c-1.049-.663-2.237-1.077-3.471-1.209-2.023-.261-5.851-.362-7.276-1.954l7.47-.522c1.534-.203 3.322-.615 4.729.185-.674-1.407-1.036-2.973-1.686-4.321s-1.264-3.588-2.461-4.506l.902-.177c1.836 2.261 3.499 4.657 4.974 7.168 4.08 11.084.691 24.323 4.401 37.462.269 3.782 1.424 9.054 2.369 14.495-.043.11-.093.219-.144.32-.345-.724-.522-1.507-.843-2.291-1.846-5.205-3.954-10.241-5.218-15.623-.939-3.995-1.621-8.046-2.041-12.128-.303-3.42-.885-6.873-.607-10.301z" fill="#fedada"/><path d="M338.205 267.719c-2.057 7.993 21.186 17.232 27.256 23.633.548.464.54.413.051-.05-6.205-.042-20.234-3.698-25.494-6.494 2.993 4.489 6.744 9.644 26.067 17.359-21.017 9.306-49.648 61.011-50.027 79.414h-53.56c-8.953-16.365 36.985-68.061 52.919-80.745 12.722-13.813 14.872-14.655 22.493-21.056.675-.547.261-9.728.295-12.044" fill="url(#AT)"/><g class="B"><path opacity=".59" d="M136.755 107.762l47.599 47.123 22.797-.808-70.396-46.315z" fill="url(#AU)"/><path d="M116.935 87.911c-.118 0-5.902-1.044-7.344 2.316 0 0-1.559 1.044-.775 3.605s1.222 3.369 2.892 4.523 9.003 5.457 9.003 5.457.557.228-.556 1.162-6.003 3.833-6.003 3.833-2.672-1.516-5.007-.472-2.445 2.527-2.226 3.487l-15.276 6.19 2.445.699 15.124-3.596a3.54 3.54 0 0 0 1.113.926 11.02 11.02 0 0 0 2.226.346l.219-.228-.447-.236a1.06 1.06 0 0 1-.437-.437 1.05 1.05 0 0 1-.119-.607c1.067.124 2.149.044 3.186-.236l2.336.581.109-.235-.109-.699-.843-.346.109-.699 2.529-.581c.687.456 1.437.808 2.226 1.044l.894.236v-.842l-.675-.573-.109-.581 8.768-1.516 2.782.236-8.229 2.291.843.463 9.274-1.971c1.514.482 3.084.765 4.671.842 2.529.118 4.788-1.162 4.788-1.507.105-.537.178-1.08.22-1.626l17.24-4.994-.556-.581-17.131 4.211-1.998-.733 4.215-1.507c.697.136 1.405.212 2.116.227l1.113.581.776-.227-.22-.935s.843-.691.995-1.045c1.013-.372 2.057-.654 3.119-.842a3.12 3.12 0 0 0 1.779 1.272l-.227-1.853 4.451-1.162c.431.71 1.1 1.244 1.889 1.507l-.211-1.911 21.92-6.503-.557-1.39-33.267 6.359c-.622-.61-1.379-1.064-2.21-1.326a5.53 5.53 0 0 0-2.57-.182c-.207.665-.62 1.248-1.179 1.664s-1.235.644-1.932.652l-5.227.236-15.715-11.261c0 .227-2.411-1.044-4.215-1.508z" fill="#cde2f5" class="B"/><path d="M108.951 93.832c.775 2.434 1.222 3.369 2.891 4.523s9.004 5.457 9.004 5.457.557.228-.556 1.163-6.003 3.832-6.003 3.832-2.672-1.516-5.008-.472-2.444 2.527-2.225 3.487l-15.344 6.19 2.445.699 15.124-3.596a3.58 3.58 0 0 0 1.113.927 11.09 11.09 0 0 0 2.226.345l.219-.227-.438-.236a1.04 1.04 0 0 1-.523-1.087 8.43 8.43 0 0 0 3.187-.194l2.335.582.11-.236-.11-.699-.843-.346.11-.699 2.529-.581a8.36 8.36 0 0 0 2.226 1.045l.893.235v-.842l-.666-.573-.118-.581 8.768-1.516 2.782.236-8.228 2.291.894.463 9.273-1.971a18.28 18.28 0 0 0 4.671.843c2.529.118 4.78-1.163 4.78-1.508a14.35 14.35 0 0 0 .219-1.625l17.241-4.995-.557-.581-17.131 4.211-2.015-.733 4.216-1.507c.697.136 1.405.212 2.116.227l1.113.581.775-.227-.219-.935s.885-.691 1.003-1.044c.11-.228 3.111-.843 3.111-.843.42.625 1.052 1.077 1.779 1.272l-.219-1.853 4.443-1.162c.436.709 1.107 1.243 1.897 1.508l-.245-1.912 21.92-6.502-.455-1.078-41.235 8.018-10.116 1.044.219.463a1.02 1.02 0 0 1-.481.414 1.03 1.03 0 0 1-.632.05l-2.023-.725a.72.72 0 0 1-.49-.342.71.71 0 0 1-.097-.289.73.73 0 0 1 .03-.304l-17.797-10.182c-.776-.354.219-1.853.219-1.853l-1.332.236a3.38 3.38 0 0 0-.961 1.738 3.37 3.37 0 0 0 .186 1.977z" fill="url(#AV)" class="B"/><path d="M113.84 110.542a3.86 3.86 0 0 0-1.778-2.317 5.12 5.12 0 0 0-2.892.346c-2.335 1.044-2.445 2.526-2.226 3.478.11.354.557 2.443 3.372 1.626 2.968-1.045 4.089-1.853 3.524-3.133z" fill="url(#AW)" class="B"/><path d="M144.646 109.379l-.447-1.474-1.973-.724h-.109c-.985.292-1.845.902-2.445 1.735l4.78 2.207.11-.118c0-.345.109-1.154.109-1.626h-.025z" fill="url(#AX)" class="B"/><path d="M110.19 89.418l1.56-.463 2.529-.354.556.935-5.227.691.582-.808zm4.561-.842c.092.306.24.592.438.842l1.788.581-.447-1.398-1.779-.025zm2.226 0l.438 1.398 1.686-.236c-.622-.545-1.364-.935-2.166-1.137l.042-.025z" fill="url(#AY)" class="B"/><path d="M139.09 100.797l-.118-4.767 1.113.935.784 3.714-1.779.118z" fill="url(#AZ)" class="B"/><path d="M116.623 113.447c.189-.434.257-.911.198-1.381s-.245-.915-.536-1.289a9.58 9.58 0 0 0-1.88-1.861s-2.782-1.507-5.117-.463-2.445 2.527-2.226 3.487h-.109a2.53 2.53 0 0 0 .446.842s0 1.162 2.892 1.743l3.001.582a4.64 4.64 0 0 0 1.889-.236l2.335.581.118-.228-.118-.699-.885-.345-.008-.733z" fill="url(#Aa)" class="B"/><path d="M110.283 108.806c-.11 0-2.336.691-2.445 2.317s.885 2.206 3.372 1.162 1.779-1.971 1.442-2.788a2.33 2.33 0 0 0-1.086-.683 2.34 2.34 0 0 0-1.283-.008z" fill="url(#Ab)" class="B"/><path d="M91.491 118.088l.11-3.251.776.236 1.003 2.316-1.888.699z" fill="url(#Ac)" class="B"/><path d="M183.351 93.478c0-.118.894-4.059.894-4.059l.219 1.162-.447 4.211-.666-1.314z" fill="url(#Ad)" class="B"/><path d="M149.544 102.414c.674.521 1.207 1.201 1.551 1.979 0 0 1.004-1.861-.885-4.211l-.775.11c.269.676.307 1.422.109 2.122z" fill="url(#Ae)" class="B"/><path d="M145.312 98.355s-2.892.581-3.221 3.251v.117c-.227 2.788 3.002 2.67 6.231 1.508s1.222-5.34-3.01-4.876z" fill="url(#Af)" class="B"/><path d="M145.43 98.818s-2.453.463-2.529 2.324 1.332 2.434 3.448 1.971c1.45-.345 2.782-.926 2.673-2.089s-1.147-2.434-3.592-2.206z" fill="url(#Ag)" class="B"/></g><path opacity=".37" d="M310.941 135.43a4.69 4.69 0 0 0-3.242 1.498 4.68 4.68 0 0 0-1.244 3.345 4.61 4.61 0 0 0 .277 1.791c.209.573.53 1.099.944 1.547a4.61 4.61 0 0 0 1.466 1.066 4.63 4.63 0 0 0 1.765.422l-.295 91.483c.023 2.683-1.013 5.267-2.882 7.193s-4.424 3.039-7.109 3.099l-71.306.227a10.05 10.05 0 0 1-3.859-.824 10.06 10.06 0 0 1-3.244-2.243c-.923-.955-1.647-2.083-2.131-3.318a10.04 10.04 0 0 1-.689-3.881l.295-91.484c1.205-.103 2.323-.663 3.127-1.566a4.71 4.71 0 0 0 1.19-3.285 4.64 4.64 0 0 0-1.168-3.272 4.65 4.65 0 0 0-3.115-1.546l.067-23.565c-.031-2.689 1-5.282 2.871-7.215s4.429-3.051 7.12-3.111l71.306-.228a10.07 10.07 0 0 1 3.859.825 10.05 10.05 0 0 1 3.244 2.243 10.04 10.04 0 0 1 2.82 7.199l-.067 23.6zm-39.06 4.952c-.006.283.043.565.146.828a2.14 2.14 0 0 0 .454.708c.197.204.433.367.693.479a2.14 2.14 0 0 0 .823.175 2.18 2.18 0 0 0 1.52-.66 2.17 2.17 0 0 0 .613-1.538c.006-.283-.044-.564-.148-.827s-.258-.504-.454-.707a2.14 2.14 0 0 0-.692-.479c-.259-.113-.539-.173-.822-.177-.572.015-1.116.254-1.515.665a2.19 2.19 0 0 0-.618 1.533zm11.753 2.165a2.2 2.2 0 0 0 1.518-.668c.398-.413.619-.966.615-1.539.005-.282-.045-.563-.149-.826s-.258-.502-.455-.705-.431-.365-.691-.476a2.13 2.13 0 0 0-.821-.174c-.574.011-1.121.248-1.52.66s-.62.964-.613 1.538a2.13 2.13 0 0 0 .148.827c.103.263.258.503.454.707a2.16 2.16 0 0 0 1.514.656zm-39.009-2.072c-.006.282.045.563.148.825a2.16 2.16 0 0 0 1.147 1.182c.259.112.538.171.821.174a2.2 2.2 0 0 0 1.246-.33c.374-.232.669-.57.848-.971a2.19 2.19 0 0 0-.43-2.425c-.305-.316-.699-.532-1.129-.622s-.877-.049-1.284.117a2.2 2.2 0 0 0-.998.815c-.243.366-.372.796-.369 1.235zm11.204 2.156a2.2 2.2 0 0 0 1.246-.33c.373-.231.668-.569.847-.969a2.19 2.19 0 0 0 .159-1.277 2.2 2.2 0 0 0-.584-1.148c-.305-.315-.698-.532-1.127-.623s-.877-.052-1.284.113a2.2 2.2 0 0 0-.999.812c-.245.364-.375.793-.374 1.232-.007.57.212 1.119.608 1.529s.938.648 1.508.661zm-27.264.084a2.17 2.17 0 0 0 1.519-.66c.4-.412.62-.965.614-1.538.005-.283-.045-.564-.149-.827s-.258-.504-.454-.707a2.16 2.16 0 0 0-.691-.479c-.26-.112-.539-.173-.823-.177-.574.015-1.119.255-1.517.668s-.62.965-.615 1.539c-.006.282.044.563.148.825a2.13 2.13 0 0 0 .455.706c.196.202.431.364.691.476s.539.171.822.174zm6.972-2.215c-.006.283.045.564.148.827s.258.503.454.707a2.17 2.17 0 0 0 1.514.656 2.18 2.18 0 0 0 1.514-.663 2.17 2.17 0 0 0 .61-1.536c.008-.282-.04-.564-.142-.827s-.256-.505-.452-.709-.431-.366-.691-.478-.539-.172-.822-.175c-.574.011-1.121.248-1.52.66a2.17 2.17 0 0 0-.613 1.538zm29.372 2.105c.574-.015 1.119-.255 1.518-.667a2.19 2.19 0 0 0 .615-1.539 2.14 2.14 0 0 0-.603-1.531c-.197-.203-.432-.365-.691-.476s-.539-.171-.822-.175a2.17 2.17 0 0 0-.829.176c-.262.112-.5.275-.699.479s-.355.446-.461.711a2.16 2.16 0 0 0-.152.833 2.14 2.14 0 0 0 .146.83 2.15 2.15 0 0 0 1.152 1.187c.261.112.542.17.826.172zm27.821-.092c.574-.011 1.119-.249 1.517-.661s.617-.965.608-1.537a2.14 2.14 0 0 0-.145-.827 2.15 2.15 0 0 0-.452-.707 2.16 2.16 0 0 0-.69-.479 2.13 2.13 0 0 0-.821-.177c-.572.015-1.116.254-1.515.665s-.62.961-.618 1.533a2.16 2.16 0 0 0 .145.826c.103.264.256.504.452.708a2.16 2.16 0 0 0 .69.479c.259.112.538.172.821.177h.008zm9.089 0c.574-.013 1.119-.253 1.517-.666s.616-.967.607-1.541c.007-.282-.043-.562-.145-.825s-.257-.502-.453-.705-.43-.365-.689-.477-.538-.171-.821-.174c-.573.011-1.12.248-1.519.66s-.62.965-.614 1.538a2.15 2.15 0 0 0 2.108 2.165l.009.025z" fill="url(#Ah)"/><path d="M308.023 138.731c-.043-1.233.403-2.434 1.241-3.341s2.002-1.447 3.236-1.502l.076-23.582c.03-1.327-.203-2.647-.687-3.883s-1.208-2.364-2.13-3.319a10.06 10.06 0 0 0-3.246-2.243c-1.22-.526-2.531-.806-3.86-.822l-71.298.227c-2.692.058-5.251 1.175-7.122 3.109a10.19 10.19 0 0 0-2.868 7.217l-.076 23.583c1.198.095 2.312.649 3.109 1.548s1.215 2.07 1.165 3.269c.039 1.206-.386 2.381-1.187 3.283s-1.918 1.464-3.121 1.569l-.303 91.483c-.029 1.327.205 2.646.689 3.881a10.03 10.03 0 0 0 2.131 3.318c.922.955 2.025 1.717 3.244 2.244a10.08 10.08 0 0 0 3.858.824l71.307-.228c2.684-.059 5.236-1.171 7.105-3.096s2.906-4.506 2.885-7.187l.295-91.484a4.63 4.63 0 0 1-1.772-.427 4.62 4.62 0 0 1-2.408-2.639 4.64 4.64 0 0 1-.263-1.802zm-77.882-1.945c.438-.015.87.1 1.242.332s.665.569.843.969.234.843.158 1.274-.278.83-.581 1.145a2.2 2.2 0 0 1-2.404.517 2.2 2.2 0 0 1-1.002-.804 2.19 2.19 0 0 1-.38-1.227c-.01-.573.209-1.127.607-1.54a2.17 2.17 0 0 1 1.517-.666zm9.088 0a2.12 2.12 0 0 1 .824.175c.26.112.495.274.692.478s.351.444.454.708.153.545.146.828c.003.573-.219 1.123-.618 1.534s-.942.649-1.515.665c-.282-.005-.561-.065-.82-.178a2.12 2.12 0 0 1-.69-.479c-.196-.203-.35-.443-.452-.707a2.12 2.12 0 0 1-.145-.826c-.008-.286.041-.57.144-.837a2.16 2.16 0 0 1 .454-.717c.198-.207.434-.372.696-.487a2.18 2.18 0 0 1 .83-.183v.026zm9.089 0c.283.004.562.064.822.177a2.16 2.16 0 0 1 .691.478 2.14 2.14 0 0 1 .454.707 2.15 2.15 0 0 1 .149.827c.006.574-.214 1.127-.614 1.539s-.945.649-1.519.66a2.17 2.17 0 0 1-.822-.174c-.26-.112-.494-.274-.691-.477s-.352-.442-.455-.705a2.12 2.12 0 0 1-.148-.826c-.011-.289.037-.577.139-.847s.256-.519.454-.729a2.21 2.21 0 0 1 .701-.499c.264-.118.549-.183.839-.19v.059zm9.088 0c.282.004.561.064.821.177a2.14 2.14 0 0 1 .689.479c.196.204.35.444.452.707a2.12 2.12 0 0 1 .145.826c-.013.418-.149.822-.391 1.162s-.58.602-.97.752-.816.182-1.224.091a2.12 2.12 0 0 1-1.069-.601c-.29-.301-.485-.681-.559-1.091a2.12 2.12 0 0 1 .138-1.219 2.13 2.13 0 0 1 1.968-1.283zm9.088 0c.282.003.561.062.82.174a2.13 2.13 0 0 1 .69.477c.196.202.35.442.452.705s.152.543.146.825c.009.574-.21 1.127-.607 1.541a2.18 2.18 0 0 1-1.518.666c-.283-.005-.562-.065-.822-.177s-.495-.276-.691-.479a2.16 2.16 0 0 1-.455-.707c-.103-.263-.154-.544-.148-.827-.018-.293.023-.587.122-.863a2.16 2.16 0 0 1 .451-.746c.199-.216.44-.389.708-.509a2.18 2.18 0 0 1 .852-.19v.11zm9.08 0a2.2 2.2 0 0 1 1.242.333c.372.232.666.57.844.97a2.2 2.2 0 0 1 .157 1.275c-.076.432-.28.83-.584 1.145a2.2 2.2 0 0 1-1.125.624c-.429.091-.875.052-1.282-.112a2.2 2.2 0 0 1-1-.808c-.245-.363-.376-.791-.377-1.229a2.17 2.17 0 0 1 .111-.872c.095-.28.247-.537.446-.756a2.18 2.18 0 0 1 .71-.519c.27-.122.562-.189.858-.194v.143zm9.636 0c.283.002.563.06.823.171a2.15 2.15 0 0 1 .693.477c.196.203.351.443.454.706s.153.544.146.827c.009.574-.209 1.127-.607 1.541a2.18 2.18 0 0 1-1.517.666c-.559-.035-1.084-.281-1.468-.689a2.2 2.2 0 0 1 0-3.011c.384-.407.909-.654 1.468-.688h.008zm9.088 0c.283.004.563.064.822.177a2.15 2.15 0 0 1 .692.478c.196.204.351.444.454.707a2.13 2.13 0 0 1 .148.827 2.17 2.17 0 0 1-.613 1.539 2.18 2.18 0 0 1-1.52.66c-.283-.004-.562-.063-.822-.175s-.494-.275-.691-.479-.349-.445-.451-.708a2.11 2.11 0 0 1-.143-.828c-.032-.3-.001-.603.091-.89s.243-.551.442-.777.445-.408.719-.534.571-.194.872-.199v.202zm9.089 0a2.13 2.13 0 0 1 .821.174c.26.111.495.273.691.476s.352.443.455.705.154.544.149.826c.004.574-.217 1.126-.615 1.539a2.2 2.2 0 0 1-1.518.668c-.283-.005-.562-.065-.821-.178a2.13 2.13 0 0 1-1.142-1.186 2.14 2.14 0 0 1-.145-.826 2.16 2.16 0 0 1 .075-.904c.088-.293.238-.563.438-.794s.448-.416.726-.545.58-.196.886-.2v.245z" fill="#fff"/><g fill="#242f65"><path d="M258.949 170.551l-14.687.05-.025 15.068 14.686-.051.051-15.067h-.025zm4.805-4.91l-.126 24.862-24.23.076.076-24.863 24.28-.075zm-8.717 8.919l-.025 7.074-6.897.026.026-7.075 6.896-.025zm34.262-4.102h-14.686l-.026 15.11 14.687-.042.05-15.068h-.025zm4.814-4.91l-.135 24.896-24.238.076.084-24.854 24.289-.118zm-8.717 8.919l-.026 7.075-6.896.016.025-7.074 6.897-.017zm-8.743 22.125l-.017 7.075-6.905.025.026-7.083 6.896-.017zm9.797 11.943h-4.831v4.961h4.831v-4.952-.009zm4.788-4.902l-.042 14.748-14.383.042.051-14.748 14.374-.042zm-32.39-2.088h-14.687l-.05 15.067 14.686-.042.051-15.067v.042zm4.78-4.953l-.076 24.855-24.23.075.076-24.854 24.23-.076zm-8.692 8.962l-.026 7.074-6.896.017.025-7.074 6.897-.017z"/><path d="M293.987 196.534l-.076 24.862-24.23.076.009-4.758 19.432-.068.068-20.095 4.797-.017z"/></g><path d="M301.844 117.111l.025-6.738-69.797.219-.026 6.738 69.798-.219z" fill="#ee474a"/><path d="M266.916 127.976l.016-6.738-34.894.109-.025 6.738 34.903-.109z" fill="#cde2f5"/><path d="M374.727 295.066a61.57 61.57 0 0 0-.498-10.949l-.919-5.98c.214.727.467 1.441.759 2.14a3.88 3.88 0 0 0 .144-.32c-.945-5.441-2.1-10.714-2.369-14.495-3.71-13.139-.321-26.379-4.401-37.463-1.338-2.282-2.837-4.466-4.485-6.535-1.063-1.997-3.373-5.896-6.323-7.993-1.897-1.365-4.646-6.738-5.497-8.785l-.59.127.598-.118c-.118-.202-5.775-12.819-6.947-18.622-.511-.279-1.074-.45-1.655-.5a4.22 4.22 0 0 0-1.717.205c-.603-.312-1.247-.536-1.914-.665a8.35 8.35 0 0 0-3.372.842v-.067l-.219.185c-2.791 1.457-4.536 4.439-5.547 7.824-.835 2.575-1.234 5.271-1.181 7.976v.438a.58.58 0 0 0 0 .118c-.015 1.335.07 2.67.253 3.992 1.239 8.111 2.108 12.71 9.35 26.657 0 0-.455 8.422-.354 13.728 0 .624 0 1.23.042 1.845l.118 19.371.067 11.412a.78.78 0 0 1-.151.363l-1.459 1.212c-2.032 1.483-3.954 3.075-5.859 4.717-.574.505-1.223 1.103-1.931 1.76-4.638 4.235-9.059 8.702-13.244 13.383-3.895 3.108-9.274 8.869-15.1 16.003-36.37-.615-65.675-.843-94.583-3.521-.077-.437-.244-.854-.491-1.224a3.21 3.21 0 0 0-.942-.923c-2.445.32-4.216-3.167-4.907-9.029v-.379l-.042-17.738.253-38.961s-.051-1.988-.161-3.883v-1.162l-.118-.413c-.026-.569-.111-1.133-.252-1.685 0-.092-.001-.168-.06-.261l-.564-28.779c.312-.606.607-1.229.893-1.853l.127-.32c1.939-3.091 5.378-11.008-1.088-21.384-3.822-1.952-8.034-3.02-12.325-3.125-5.253-.16-4.671-.16-5.995.312s-6.845 7.673-6.845 13.77c0 2.468-.211 2.99 1.382 4.936s8.844 9.408 13.515 12.035c6.997 3.942 5.193 4.624 5.193 4.624l3.844 14.403a5.3 5.3 0 0 0-2.36-.472c-3.446-1.059-6.954-1.903-10.505-2.527-2.234.101-5.202-1.684-8.759.421-2.226 1.154-1.686 2.106-2.757 3.731-1.754 2.628-3.499 4.414-3.499 8.987-.902 2.047 3.448 8.616 5.573 12.187s3.659.421 7.048 4.312c1.121 1.281 4.493 3.79 7.2 5.711h-.085c-3.372 1.052-6.103 1.314-8.017 2.316-5.902 2.097-7.428 5.938-6.787 11.606.171 2.475.818 4.894 1.905 7.125h-.05l.16.169a8.8 8.8 0 0 0 1.981 2.366c3.089 3.823 5.553 8.11 7.301 12.701 1.484 2.316 3.718 7.833 7.798 10.949s9.603 9.265 9.603 9.265l10.496 28.981c5.573 16.962 6.247 24.164 9.856 31.382h119.926c2.335-5.686 13.919-41.944 16.313-47.587l5.168-12.49c.793-1.971 1.416-4.211 2.698-5.963a47.04 47.04 0 0 0 3.903-6.367 33.54 33.54 0 0 0 3.373-12.128l.682.294c.346.219.059-.716-.598-2.215z" fill="url(#Ai)"/></g><defs><linearGradient id="A" x1="149.612" y1="331.813" x2="361.837" y2="119.386" xlink:href="#Ak"><stop stop-color="#fdb5b5" stop-opacity="0"/><stop offset=".07" stop-color="#fdb5b5" stop-opacity=".03"/><stop offset=".19" stop-color="#fdb5b5" stop-opacity=".12"/><stop offset=".34" stop-color="#fdb5b5" stop-opacity=".27"/><stop offset=".51" stop-color="#fdb5b5" stop-opacity=".48"/><stop offset=".68" stop-color="#fdb5b5" stop-opacity=".72"/></linearGradient><linearGradient id="B" x1="175.022" y1="177.929" x2="175.022" y2="233.381" xlink:href="#Ak"><stop offset=".69" stop-color="#bfd2e8"/></linearGradient><linearGradient id="C" x1="161.33" y1="177.929" x2="161.33" y2="233.07" xlink:href="#Ak"><stop stop-color="#fff"/><stop offset=".41" stop-color="#fce2e6"/><stop offset=".43" stop-color="#fce2e6" stop-opacity=".97"/><stop offset=".83" stop-color="#fce2e6" stop-opacity=".28"/><stop offset="1" stop-color="#fce2e6" stop-opacity="0"/></linearGradient><linearGradient id="D" x1="4067.99" y1="5387.87" x2="6826.85" y2="5387.87" xlink:href="#Ak"><stop stop-color="#fdb5b5" stop-opacity="0"/><stop offset=".07" stop-color="#fdb5b5" stop-opacity=".03"/><stop offset=".19" stop-color="#fdb5b5" stop-opacity=".12"/><stop offset=".34" stop-color="#fdb5b5" stop-opacity=".27"/><stop offset=".51" stop-color="#fdb5b5" stop-opacity=".48"/><stop offset=".68" stop-color="#fdb5b5" stop-opacity=".72"/></linearGradient><linearGradient id="E" x1="268.568" y1="231.907" x2="268.568" y2="317.84" xlink:href="#Ak"><stop offset=".03" stop-color="#deebf9"/><stop offset="1" stop-color="#deebf9" stop-opacity="0"/></linearGradient><linearGradient id="F" x1="41.876" y1="245.585" x2="183.424" y2="245.585" xlink:href="#Ak"><stop stop-color="#425585" stop-opacity="0"/><stop offset=".07" stop-color="#39487b" stop-opacity=".34"/><stop offset=".15" stop-color="#303d72" stop-opacity=".63"/><stop offset=".23" stop-color="#2b356b" stop-opacity=".83"/><stop offset=".3" stop-color="#273167" stop-opacity=".96"/><stop offset=".38" stop-color="#262f66"/><stop offset=".43" stop-color="#34457b"/><stop offset=".5" stop-color="#425a8f"/><stop offset=".57" stop-color="#4a679b"/><stop offset=".63" stop-color="#4d6b9f"/><stop offset="1" stop-color="#4d6b9f" stop-opacity="0"/></linearGradient><linearGradient id="G" x1="96.76" y1="234.67" x2="63.256" y2="234.67" xlink:href="#Ak"><stop offset=".08" stop-color="#5e8ec8"/></linearGradient><linearGradient id="H" x1="49.971" y1="210.624" x2="117.576" y2="210.624" xlink:href="#Ak"><stop offset=".28" stop-color="#f6b2b3"/><stop offset=".5" stop-color="#f48f90"/></linearGradient><linearGradient id="I" x1="88.658" y1="230.753" x2="88.658" y2="255.296" xlink:href="#Ak"><stop offset=".29" stop-color="#242f65"/><stop offset=".68" stop-color="#253166"/><stop offset=".81" stop-color="#2a386c"/><stop offset=".91" stop-color="#334375"/><stop offset=".99" stop-color="#405483"/><stop offset="1" stop-color="#425785"/></linearGradient><linearGradient id="J" x1="36562.4" y1="56278.4" x2="36562.4" y2="53974.9" xlink:href="#Ak"><stop offset=".28" stop-color="#f6b2b3"/><stop offset=".5" stop-color="#f48f90"/></linearGradient><linearGradient id="K" x1="112.896" y1="242.309" x2="119.725" y2="242.309" xlink:href="#Ak"><stop offset=".32" stop-color="#242f65"/></linearGradient><linearGradient id="L" x1="118.127" y1="237.014" x2="117.911" y2="242.627" xlink:href="#Ak"><stop offset=".35" stop-color="#242f65"/><stop offset="1" stop-color="#717fa2"/></linearGradient><linearGradient id="M" x1="114.436" y1="244.625" x2="114.251" y2="248.444" xlink:href="#Ak"><stop offset=".25" stop-color="#425685"/><stop offset="1" stop-color="#f6b2b3"/></linearGradient><linearGradient id="N" x1="83.514" y1="244.238" x2="91.244" y2="244.238" xlink:href="#Ak"><stop stop-color="#242f65" stop-opacity="0"/><stop offset=".31" stop-color="#242f65" stop-opacity=".02"/><stop offset=".5" stop-color="#242f65" stop-opacity=".11"/><stop offset=".64" stop-color="#242f65" stop-opacity=".25"/><stop offset=".78" stop-color="#242f65" stop-opacity=".44"/><stop offset=".89" stop-color="#242f65" stop-opacity=".7"/><stop offset="1" stop-color="#242f65"/></linearGradient><linearGradient id="O" x1="5713.27" y1="11891.7" x2="5750.43" y2="11891.7" xlink:href="#Ak"><stop stop-color="#242f65" stop-opacity="0"/><stop offset=".31" stop-color="#242f65" stop-opacity=".02"/><stop offset=".5" stop-color="#242f65" stop-opacity=".11"/><stop offset=".64" stop-color="#242f65" stop-opacity=".25"/><stop offset=".78" stop-color="#242f65" stop-opacity=".44"/><stop offset=".89" stop-color="#242f65" stop-opacity=".7"/><stop offset="1" stop-color="#242f65"/></linearGradient><linearGradient id="P" x1="91.621" y1="243.687" x2="91.125" y2="251.461" xlink:href="#Ak"><stop stop-color="#242f65"/><stop offset=".29" stop-color="#717fa2"/><stop offset=".76" stop-color="#242f65"/></linearGradient><linearGradient id="Q" x1="91.224" y1="244.573" x2="90.866" y2="250.365" xlink:href="#Ak"><stop offset=".3" stop-color="#425685"/><stop offset="1" stop-color="#242f65"/></linearGradient><linearGradient id="R" x1="63.61" y1="230.627" x2="74.719" y2="230.627" xlink:href="#Ak"><stop stop-color="#242f65" stop-opacity="0"/><stop offset=".17" stop-color="#242f65" stop-opacity=".02"/><stop offset=".26" stop-color="#242f65" stop-opacity=".11"/><stop offset=".34" stop-color="#242f65" stop-opacity=".25"/><stop offset=".41" stop-color="#242f65" stop-opacity=".44"/><stop offset=".48" stop-color="#242f65" stop-opacity=".7"/><stop offset=".53" stop-color="#242f65"/><stop offset="1" stop-color="#242f65" stop-opacity="0"/></linearGradient><linearGradient id="S" x1="97.873" y1="209.723" x2="97.873" y2="236.75" xlink:href="#Ak"><stop offset=".02" stop-color="#717fa2"/><stop offset=".27" stop-color="#425685"/></linearGradient><linearGradient id="T" x1="54.832" y1="239.563" x2="54.712" y2="243.85" xlink:href="#Ak"><stop offset=".12" stop-color="#f6b2b3"/></linearGradient><linearGradient id="U" x1="27012.2" y1="38575.1" x2="27012.2" y2="37491.9" xlink:href="#Ak"><stop offset=".02" stop-color="#717fa2"/><stop offset=".27" stop-color="#425685"/></linearGradient><linearGradient id="V" x1="7379.63" y1="10936.9" x2="7457.13" y2="10936.9" xlink:href="#Ak"><stop offset=".28" stop-color="#f6b2b3"/><stop offset=".5" stop-color="#f48f90"/></linearGradient><linearGradient id="W" x1="57.391" y1="209.706" x2="57.391" y2="235.681" xlink:href="#Ak"><stop offset=".29" stop-color="#7da4d2"/><stop offset=".52" stop-color="#5e8ec8"/><stop offset=".88" stop-color="#425685"/></linearGradient><linearGradient id="X" x1="62.366" y1="240.642" x2="69.01" y2="240.638" xlink:href="#Ak"><stop offset=".26" stop-color="#f9d8d8"/><stop offset=".48" stop-color="#f9d5d5"/><stop offset=".63" stop-color="#f8cbcc"/><stop offset=".78" stop-color="#f7bbbc"/><stop offset=".91" stop-color="#f5a5a5"/><stop offset="1" stop-color="#f48f90"/></linearGradient><linearGradient id="Y" x1="41.729" y1="239.651" x2="45.928" y2="239.641" xlink:href="#Ak"><stop stop-color="#f48f90"/><stop offset=".09" stop-color="#f5a5a5"/><stop offset=".22" stop-color="#f7bbbc"/><stop offset=".37" stop-color="#f8cbcc"/><stop offset=".52" stop-color="#f9d5d5"/><stop offset=".74" stop-color="#f9d8d8"/></linearGradient><linearGradient id="Z" x1="65.759" y1="222.626" x2="65.759" y2="236.75" xlink:href="#Ak"><stop offset=".04" stop-color="#242f65"/><stop offset="1" stop-color="#425685"/></linearGradient><linearGradient id="a" x1="17836.6" y1="-940.315" x2="18287.8" y2="-940.315" xlink:href="#Ak"><stop offset=".12" stop-color="#f6b2b3"/></linearGradient><linearGradient id="b" x1="45.564" y1="213.05" x2="45.564" y2="222.213" xlink:href="#Ak"><stop stop-color="#425685"/><stop offset=".2" stop-color="#425685" stop-opacity=".98"/><stop offset=".38" stop-color="#425685" stop-opacity=".9"/><stop offset=".53" stop-color="#425685" stop-opacity=".77"/><stop offset=".69" stop-color="#425685" stop-opacity=".58"/><stop offset=".83" stop-color="#425685" stop-opacity=".34"/><stop offset=".98" stop-color="#425685" stop-opacity=".06"/><stop offset="1" stop-color="#425685" stop-opacity="0"/></linearGradient><linearGradient id="c" x1="68.572" y1="213.429" x2="68.572" y2="222.727" xlink:href="#Ak"><stop stop-color="#f48f90"/><stop offset=".11" stop-color="#f6b2b3"/></linearGradient><linearGradient id="d" x1="41.53" y1="218.457" x2="46.001" y2="218.457" xlink:href="#Ak"><stop offset=".46" stop-color="#425685"/><stop offset=".81" stop-color="#425685" stop-opacity="0"/></linearGradient><linearGradient id="e" x1="388.528" y1="118.038" x2="388.528" y2="214.397" xlink:href="#Ak"><stop offset=".22" stop-color="#cbd8e8"/><stop offset=".46" stop-color="#f1eae3"/><stop offset=".65" stop-color="#fad4ae"/><stop offset=".81" stop-color="#dda294"/><stop offset=".93" stop-color="#b78680"/></linearGradient><linearGradient id="f" x1="399.851" y1="116.555" x2="399.851" y2="231.242" xlink:href="#Ak"><stop offset=".23" stop-color="#fedada"/><stop offset=".45" stop-color="#dbe4f1"/></linearGradient><linearGradient id="g" x1="9236.81" y1="10744.7" x2="9236.81" y2="17545.5" xlink:href="#Ak"><stop offset=".23" stop-color="#fedada"/><stop offset=".45" stop-color="#dbe4f1"/></linearGradient><linearGradient id="h" x1="339.731" y1="155.837" x2="339.731" y2="231.099" xlink:href="#Ak"><stop stop-color="#fdeef1"/><stop offset=".41" stop-color="#fce2e6"/><stop offset=".43" stop-color="#fce2e6" stop-opacity=".97"/><stop offset=".83" stop-color="#fce2e6" stop-opacity=".28"/><stop offset="1" stop-color="#fce2e6" stop-opacity="0"/></linearGradient><linearGradient id="i" x1="9404.48" y1="9273.63" x2="9404.48" y2="12999.3" xlink:href="#Ak"><stop offset=".69" stop-color="#bfd2e8"/></linearGradient><linearGradient id="j" x1="370.756" y1="167.662" x2="370.756" y2="174.804" xlink:href="#Ak"><stop stop-color="#bfd2e8"/><stop offset=".3" stop-color="#c2d2e7"/><stop offset=".54" stop-color="#ccd3e4"/><stop offset=".76" stop-color="#ded5e0"/><stop offset=".97" stop-color="#f5d8d9"/><stop offset="1" stop-color="#f9d8d8"/></linearGradient><linearGradient id="k" x1="4805.57" y1="-30831.8" x2="4805.57" y2="-30073.5" xlink:href="#Ak"><stop offset=".3" stop-color="#425685"/><stop offset="1" stop-color="#242f65"/></linearGradient><linearGradient id="l" x1="53540.1" y1="-19047.6" x2="79491.9" y2="-19047.6" xlink:href="#Ak"><stop offset=".3" stop-color="#425685"/><stop offset="1" stop-color="#242f65"/></linearGradient><linearGradient id="m" x1="338.323" y1="228.311" x2="497.84" y2="228.311" xlink:href="#Ak"><stop offset=".21" stop-color="#f06b6c"/><stop offset="1" stop-color="#f6b2b3"/></linearGradient><linearGradient id="n" x1="341.434" y1="224.546" x2="442.998" y2="224.546" xlink:href="#Ak"><stop offset=".73" stop-color="#425685"/><stop offset=".98" stop-color="#717fa2"/></linearGradient><linearGradient id="o" x1="398.94" y1="223.603" x2="402.624" y2="223.603" xlink:href="#Ak"><stop offset=".13" stop-color="#425685"/></linearGradient><linearGradient id="p" x1="490.345" y1="238.292" x2="492.932" y2="236.807" xlink:href="#Ak"><stop offset=".04" stop-color="#f48f90"/></linearGradient><linearGradient id="q" x1="356.314" y1="216.975" x2="367.816" y2="210.32" xlink:href="#Ak"><stop stop-color="#f48f90"/><stop offset=".17" stop-color="#f49495" stop-opacity=".85"/><stop offset=".56" stop-color="#f5a2a2" stop-opacity=".46"/><stop offset="1" stop-color="#f6b2b2" stop-opacity="0"/></linearGradient><linearGradient id="r" x1="6831.5" y1="-7746.97" x2="6831.5" y2="-7688.03" xlink:href="#Ak"><stop offset=".26" stop-color="#f9d8d8"/><stop offset=".48" stop-color="#f9d5d5"/><stop offset=".63" stop-color="#f8cbcc"/><stop offset=".78" stop-color="#f7bbbc"/><stop offset=".91" stop-color="#f5a5a5"/><stop offset="1" stop-color="#f48f90"/></linearGradient><linearGradient id="s" x1="464.707" y1="208.914" x2="464.707" y2="224.411" xlink:href="#Ak"><stop offset=".34" stop-color="#bfd3ea"/><stop offset=".88" stop-color="#5e8fca"/><stop offset=".89" stop-color="#5d8dc8"/><stop offset=".94" stop-color="#4e6fa4"/><stop offset=".97" stop-color="#455c8d"/><stop offset="1" stop-color="#425585"/></linearGradient><linearGradient id="t" x1="366.65" y1="226.719" x2="366.65" y2="256.543" xlink:href="#Ak"><stop offset=".05" stop-color="#4d6b9f"/><stop offset=".12" stop-color="#252e65"/><stop offset=".62" stop-color="#262f66"/><stop offset=".7" stop-color="#273167" stop-opacity=".96"/><stop offset=".77" stop-color="#2b356b" stop-opacity=".83"/><stop offset=".85" stop-color="#303d72" stop-opacity=".63"/><stop offset=".93" stop-color="#39487b" stop-opacity=".34"/><stop offset="1" stop-color="#425585" stop-opacity="0"/></linearGradient><linearGradient id="u" x1="246.084" y1="226.188" x2="339.656" y2="226.188" xlink:href="#Ak"><stop stop-color="#f48f90"/><stop offset=".63" stop-color="#f06b6c"/></linearGradient><linearGradient id="v" x1="291.466" y1="228.85" x2="291.466" y2="237.727" xlink:href="#Ak"><stop offset=".18" stop-color="#425685"/></linearGradient><linearGradient id="w" x1="247.028" y1="224.799" x2="333.324" y2="224.799" xlink:href="#Ak"><stop offset=".02" stop-color="#717fa2"/><stop offset="1" stop-color="#425685"/></linearGradient><linearGradient id="x" x1="5064.85" y1="35589.2" x2="5206" y2="35589.2" xlink:href="#Ak"><stop offset=".13" stop-color="#425685"/></linearGradient><linearGradient id="y" x1="277.983" y1="389.635" x2="166.714" y2="374.367" xlink:href="#Ak"><stop offset=".12" stop-color="#f79b4b"/><stop offset=".14" stop-color="#ec9148"/><stop offset=".21" stop-color="#d67b41"/><stop offset=".29" stop-color="#c56c3d"/><stop offset=".38" stop-color="#bc633a"/><stop offset=".5" stop-color="#b96039"/><stop offset=".58" stop-color="#bd6237"/><stop offset=".65" stop-color="#c8692f"/><stop offset=".68" stop-color="#ce6c2c"/><stop offset=".92" stop-color="#f6c18f"/></linearGradient><linearGradient id="z" x1="261.301" y1="316.754" x2="261.301" y2="381.581" xlink:href="#Ak"><stop offset=".22" stop-color="#fa6b6b"/><stop offset="1" stop-color="#fb8989"/></linearGradient><linearGradient id="AA" x1="264.521" y1="313.909" x2="264.035" y2="338.249" xlink:href="#Ak"><stop stop-color="#252e65"/><stop offset="1" stop-color="#252e65" stop-opacity="0"/></linearGradient><linearGradient id="AB" x1="178.529" y1="267.845" x2="205.489" y2="240.859" xlink:href="#Ak"><stop offset=".17" stop-color="#fb8989"/><stop offset=".86" stop-color="#fdb5b5"/></linearGradient><linearGradient id="AC" x1="281.548" y1="367.038" x2="173.893" y2="318.157" xlink:href="#Ak"><stop offset=".37" stop-color="#ef4849"/><stop offset=".4" stop-color="#f05051"/><stop offset=".56" stop-color="#f27273"/><stop offset=".69" stop-color="#f38788"/><stop offset=".78" stop-color="#f48f90"/></linearGradient><linearGradient id="AD" x1="188.51" y1="266.111" x2="187.124" y2="268.488" xlink:href="#Ak"><stop offset=".5" stop-color="#d7a990"/><stop offset=".76" stop-color="#b96039" stop-opacity="0"/></linearGradient><linearGradient id="AE" x1="196.73" y1="269.37" x2="177.938" y2="285.727" xlink:href="#Ak"><stop offset=".17" stop-color="#fb8989"/><stop offset=".39" stop-color="#fb8989"/><stop offset="1" stop-color="#fb8989" stop-opacity="0"/></linearGradient><linearGradient id="AF" x1="51448.2" y1="2741.35" x2="52922.7" y2="3285.07" xlink:href="#Ak"><stop offset=".12" stop-color="#f79b4b"/><stop offset=".14" stop-color="#ec9148"/><stop offset=".21" stop-color="#d67b41"/><stop offset=".29" stop-color="#c56c3d"/><stop offset=".38" stop-color="#bc633a"/><stop offset=".5" stop-color="#b96039"/><stop offset=".58" stop-color="#bd6237"/><stop offset=".65" stop-color="#c8692f"/><stop offset=".68" stop-color="#ce6c2c"/><stop offset=".92" stop-color="#f6c18f"/></linearGradient><linearGradient id="AG" x1="207.058" y1="347.563" x2="274.115" y2="347.563" xlink:href="#Ak"><stop offset=".08" stop-color="#fb8989"/></linearGradient><linearGradient id="AH" x1="211.847" y1="227.224" x2="176.723" y2="185.323" xlink:href="#Ak"><stop offset=".39" stop-color="#fa6b6b"/><stop offset=".48" stop-color="#f48f90"/><stop offset=".9" stop-color="#fbd9d9"/></linearGradient><linearGradient id="AI" x1="196.402" y1="211.018" x2="181.331" y2="186.732" xlink:href="#Ak"><stop stop-color="#f16b6c" stop-opacity="0"/><stop offset=".35" stop-color="#f16b6c"/><stop offset="1" stop-color="#f16b6c" stop-opacity="0"/></linearGradient><linearGradient id="AJ" x1="265.837" y1="46.187" x2="265.837" y2="310.395" xlink:href="#Ak"><stop offset=".55" stop-color="#5e90cc"/><stop offset=".77" stop-color="#7ea6d6"/></linearGradient><linearGradient id="AK" x1="279.402" y1="48.52" x2="281.931" y2="48.52" xlink:href="#Ak"><stop offset=".15" stop-color="#5273a9"/></linearGradient><linearGradient id="AL" x1="197.59" y1="75.336" x2="197.59" y2="86.412" xlink:href="#Ak"><stop stop-color="#2b4681"/><stop offset=".07" stop-color="#5273a9"/><stop offset=".91" stop-color="#5273a9"/><stop offset="1" stop-color="#2b4681"/></linearGradient><linearGradient id="AM" x1="490.92" y1="28674.2" x2="490.92" y2="28183.4" xlink:href="#Ak"><stop stop-color="#2b4681"/><stop offset=".07" stop-color="#5273a9"/><stop offset=".91" stop-color="#5273a9"/><stop offset="1" stop-color="#2b4681"/></linearGradient><linearGradient id="AN" x1="490.92" y1="28076.4" x2="490.92" y2="27585.6" xlink:href="#Ak"><stop stop-color="#2b4681"/><stop offset=".07" stop-color="#5273a9"/><stop offset=".91" stop-color="#5273a9"/><stop offset="1" stop-color="#2b4681"/></linearGradient><linearGradient id="AO" x1="613.573" y1="45799.2" x2="613.573" y2="44529.9" xlink:href="#Ak"><stop stop-color="#2b4681"/><stop offset=".07" stop-color="#5273a9"/><stop offset=".91" stop-color="#5273a9"/><stop offset="1" stop-color="#2b4681"/></linearGradient><linearGradient id="AP" x1="168.066" y1="275.341" x2="363.708" y2="79.506" xlink:href="#Ak"><stop offset=".21" stop-color="#5883bb" stop-opacity=".2"/><stop offset=".68" stop-color="#5e8ec8"/><stop offset=".79" stop-color="#8d99c1"/><stop offset="1" stop-color="#f6b2b3"/></linearGradient><linearGradient id="AQ" x1="265.887" y1="312.081" x2="265.887" y2="309.947" xlink:href="#Ak"><stop offset=".26" stop-color="#4e6ea5"/><stop offset="1" stop-color="#2b4681"/></linearGradient><linearGradient id="AR" x1="263.359" y1="284.237" x2="372.266" y2="280.966" xlink:href="#Ak"><stop offset=".72" stop-color="#fdb5b5"/></linearGradient><linearGradient id="AS" x1="319.354" y1="234.187" x2="382.211" y2="245.602" xlink:href="#Ak"><stop stop-color="#f16b6c" stop-opacity=".65"/><stop offset="1" stop-color="#f16b6c" stop-opacity="0"/></linearGradient><linearGradient id="AT" x1="257.583" y1="325.413" x2="364.441" y2="322.204" xlink:href="#Ak"><stop offset=".2" stop-color="#fb8989"/><stop offset="1" stop-color="#fa6b6b" stop-opacity=".1"/></linearGradient><linearGradient id="AU" x1="164.7" y1="107.703" x2="164.7" y2="154.91" xlink:href="#Ak"><stop stop-color="#fefefe" stop-opacity=".69"/><stop offset="1" stop-color="#fcfcfd" stop-opacity="0"/></linearGradient><linearGradient id="AV" x1="130.677" y1="90.109" x2="130.677" y2="118.754" xlink:href="#Ak"><stop stop-color="#5e8fca"/><stop offset=".6" stop-color="#88add9"/></linearGradient><linearGradient id="AW" x1="103.382" y1="108.057" x2="103.382" y2="113.708" xlink:href="#Ak"><stop offset=".1" stop-color="#7ea6d6"/><stop offset=".55" stop-color="#5573a6"/></linearGradient><linearGradient id="AX" x1="132.408" y1="109.152" x2="137.473" y2="109.152" xlink:href="#Ak"><stop stop-color="#d6abb9"/><stop offset=".88" stop-color="#f7b3b4"/></linearGradient><linearGradient id="AY" x1="116.309" y1="89.418" x2="106.794" y2="89.418" xlink:href="#Ak"><stop stop-color="#425486"/><stop offset=".09" stop-color="#475f93"/><stop offset=".29" stop-color="#5175ac"/><stop offset=".51" stop-color="#5884be"/><stop offset=".74" stop-color="#5d8dc9"/><stop offset="1" stop-color="#5e90cc"/></linearGradient><linearGradient id="AZ" x1="131.87" y1="98.413" x2="133.66" y2="98.413" xlink:href="#Ak"><stop offset=".67" stop-color="#f7b3b4"/><stop offset=".7" stop-color="#d4abb9"/></linearGradient><linearGradient id="Aa" x1="105.24" y1="108.049" x2="105.24" y2="115.385" xlink:href="#Ak"><stop stop-color="#5e8fca"/><stop offset=".86" stop-color="#9bbadf"/></linearGradient><linearGradient id="Ab" x1="103.333" y1="108.697" x2="103.333" y2="112.849" xlink:href="#Ak"><stop offset=".42" stop-color="#5573a6"/></linearGradient><linearGradient id="Ac" x1="84.547" y1="116.462" x2="86.366" y2="116.462" xlink:href="#Ak"><stop offset=".7" stop-color="#d4abb9"/><stop offset=".85" stop-color="#f7b3b4"/></linearGradient><linearGradient id="Ad" x1="2594.93" y1="7664.79" x2="2596.14" y2="7664.79" xlink:href="#Ak"><stop offset=".7" stop-color="#d4abb9"/><stop offset=".85" stop-color="#f7b3b4"/></linearGradient><linearGradient id="Ae" x1="142.148" y1="102.305" x2="144.114" y2="102.305" xlink:href="#Ak"><stop offset=".72" stop-color="#d3aab9"/><stop offset=".88" stop-color="#f7b3b4"/></linearGradient><linearGradient id="Af" x1="138.833" y1="98.329" x2="138.833" y2="104.031" xlink:href="#Ak"><stop offset=".45" stop-color="#5573a6"/><stop offset=".9" stop-color="#7ea6d6"/></linearGradient><linearGradient id="Ag" x1="13193.2" y1="6371.39" x2="13193.2" y2="6347.22" xlink:href="#Ak"><stop offset=".42" stop-color="#5573a6"/></linearGradient><linearGradient id="Ah" x1="219.52" y1="174.281" x2="310.849" y2="174.504" xlink:href="#Ak"><stop stop-color="#242f65"/><stop offset=".33" stop-color="#273368"/><stop offset=".64" stop-color="#303e71"/><stop offset=".93" stop-color="#3e5180"/><stop offset="1" stop-color="#425684"/></linearGradient><linearGradient id="Ai" x1="272.311" y1="182.131" x2="272.311" y2="381.58" xlink:href="#Ak"><stop offset=".63" stop-color="#fff" stop-opacity="0"/><stop offset=".68" stop-color="#fff" stop-opacity=".1"/><stop offset=".78" stop-color="#fff" stop-opacity=".37"/><stop offset=".93" stop-color="#fff" stop-opacity=".78"/><stop offset="1" stop-color="#fff"/></linearGradient><clipPath id="Aj"><path fill="#fff" transform="translate(36 38)" d="M0 0h462v347H0z"/></clipPath><linearGradient id="Ak" gradientUnits="userSpaceOnUse"/></defs></svg>