<svg xmlns="http://www.w3.org/2000/svg" width="104" height="88" fill="none"  xmlns:v="https://vecta.io/nano"><g fill-rule="evenodd"><path opacity=".65" d="M69.135.947h3.698c2.297 0 4.202 1.949 4.146 4.344v76.638c.056 2.284-2.633 5.792-6.724 5.792H35.012c-1.569 0-3.026-.891-3.754-2.339l-2.857-6.349L69.135.947z" fill="url(#A)"/><path d="M74.962 79.98c0 3.119-2.577 5.625-5.715 5.625l-36.139-.167c-3.138 0-5.715-2.562-5.659-5.681l.336-73.853c0-3.119 2.577-5.625 5.715-5.625l36.139.167c3.138 0 5.715 2.562 5.659 5.681l-.336 73.853z" fill="url(#B)"/><path d="M74.121 79.2c0 3.063-2.465 5.514-5.491 5.514l-34.795-.167c-3.026 0-5.491-2.506-5.491-5.57l.336-72.628c0-3.063 2.465-5.514 5.491-5.514l34.795.167c3.026 0 5.491 2.506 5.491 5.57L74.121 79.2z" fill="url(#C)"/><path d="M55.968 3.676c0 .167-.168.334-.392.334l-6.724-.056c-.224 0-.392-.167-.392-.334s.168-.334.392-.334l6.724.056c.28.056.392.167.392.334z" fill="#5e8ec8"/></g><path fill="url(#D)" d="M30.026 8.076H72.72v69.175H30.026z"/><g fill-rule="evenodd"><path d="M67.958 31.914c-.896 0-1.625-.78-1.625-1.727s.728-1.727 1.625-1.727v-8.299c0-2.005-1.625-3.62-3.642-3.62H38.374c-2.017 0-3.642 1.615-3.642 3.62v8.299c.897.056 1.569.78 1.569 1.727s-.728 1.671-1.569 1.727v32.248c0 2.005 1.625 3.62 3.642 3.62h25.942c2.017 0 3.642-1.615 3.642-3.62V31.914zm-30.704-1.727c0-.446.336-.78.784-.78.392 0 .728.334.785.78 0 .446-.336.78-.785.78s-.784-.334-.784-.78zm4.09-.78c-.448 0-.784.334-.784.78s.336.78.784.78.784-.334.784-.78c-.056-.446-.392-.78-.784-.78zm2.465.78c0-.446.336-.78.784-.78s.784.334.784.78-.336.78-.784.78-.784-.334-.784-.78zm4.09-.78c-.448 0-.784.334-.784.78s.336.78.784.78.784-.334.784-.78-.336-.78-.784-.78zm2.521.78c0-.446.336-.78.784-.78s.784.334.784.78-.336.78-.784.78-.784-.334-.784-.78zm4.09-.78c-.448 0-.784.334-.784.78s.336.78.784.78.784-.334.784-.78-.336-.78-.784-.78zm2.745.78c0-.446.336-.78.784-.78s.784.334.784.78-.336.78-.784.78-.784-.334-.784-.78zm4.09-.78c-.448 0-.785.334-.785.78s.336.78.785.78.784-.334.784-.78-.336-.78-.784-.78zm2.521.78c0-.446.336-.78.784-.78a.8.8 0 0 1 .784.78c0 .446-.336.78-.784.78s-.784-.334-.784-.78z" fill="#fff"/><g fill="#242f65"><path d="M41.456 39.6h8.797v8.744h-8.797V39.6zm7.06 7.018v-5.291h-5.323v5.291h5.323zm-1.401-3.899h-2.521v2.506h2.521v-2.506zm5.379-3.119h8.797v8.744h-8.797V39.6zm7.06 7.018v-5.291h-5.323v5.291h5.323zm-1.401-3.899h-2.521v2.506h2.521v-2.506zm-3.138 7.797h-2.521v2.506h2.521v-2.506zm.056 2.507h5.211v5.18h-5.211v-5.18zm3.53 3.453v-1.727h-1.737v1.727h1.737zm-17.145-5.96h8.797v8.744h-8.797v-8.744zm7.06 7.018v-5.291h-5.323v5.291h5.323zm-1.401-3.843h-2.521v2.451h2.521v-2.451z"/><path d="M61.29 50.516h-1.737v7.073h-7.06v1.727h8.797v-8.8z"/></g></g><path fill="#ef4849" d="M38.654 20.162h25.382v2.395H38.654z"/><path fill="#9cbadc" d="M38.654 23.949h12.663v2.395H38.654z"/><defs><linearGradient id="A" x1="26.474" y1="71.711" x2="81.813" y2="88.549" gradientUnits="userSpaceOnUse"><stop offset=".335" stop-color="#a1a7c2"/></linearGradient><linearGradient id="B" x1="27.662" y1=".034" x2="26.499" y2="85.162" gradientUnits="userSpaceOnUse"><stop stop-color="#f6b2b3"/><stop offset=".362" stop-color="#edb0b4"/><stop offset=".55" stop-color="#8d99c1"/><stop offset=".652" stop-color="#5e8ec8"/></linearGradient><linearGradient id="C" x1="27.516" y1="1.802" x2="31.799" y2="86.013" gradientUnits="userSpaceOnUse"><stop stop-color="#242f65"/><stop offset=".329" stop-color="#273368"/><stop offset=".637" stop-color="#303e71"/><stop offset=".935" stop-color="#3e5181"/><stop offset="1" stop-color="#425685"/></linearGradient><linearGradient id="D" x1="30.029" y1="8.088" x2="30.029" y2="77.251" gradientUnits="userSpaceOnUse"><stop offset=".305" stop-color="#7da4d2"/><stop offset="1" stop-color="#5e8ec8"/></linearGradient></defs></svg>