<svg xmlns="http://www.w3.org/2000/svg" width="37" height="37" fill="none" xmlns:v="https://vecta.io/nano"><path fill-rule="evenodd" d="M9.65 14.382v-4.8h4.8v4.8h-4.8zm4.8 12.75v-4.8h-4.8v4.8h4.8zm3.3-19.2v7.95c0 .9-.75 1.65-1.65 1.65H8.15c-.9 0-1.65-.75-1.65-1.65v-7.95c0-.9.75-1.65 1.65-1.65h7.95c.9.15 1.65.9 1.65 1.65zm-1.65 0H8.15v7.95h7.95v-7.95zm7.95 12.9v3.15H20.9v-3.15h3.15zm-6.3 0v7.95c0 .9-.75 1.65-1.65 1.65H8.15c-.9 0-1.65-.75-1.65-1.65v-7.95c0-.9.75-1.65 1.65-1.65h7.95c.9 0 1.65.75 1.65 1.65zm-1.65 0H8.15v7.95h7.95v-7.95zm11.25 0h3.15v7.95c0 .9-.75 1.65-1.65 1.65H20.9v-3.15h3.15v-3.3h3.15v-3.15h.15zm3.15-12.9v7.95c0 .9-.75 1.65-1.65 1.65H20.9c-.9 0-1.65-.75-1.65-1.65v-7.95c0-.9.75-1.65 1.65-1.65h7.95c.9.15 1.65.9 1.65 1.65zm-1.65 0H20.9v7.95h7.95v-7.95zm-1.5 6.45v-4.8h-4.8v4.8h4.8z" fill="#425486"/></svg>