<svg xmlns="http://www.w3.org/2000/svg" width="36" height="37" fill="none" xmlns:v="https://vecta.io/nano"><path fill-rule="evenodd" d="M4.5 13.308c0-3.927 3.068-7.026 6.75-7.026 2.26 0 4.277 1.157 5.51 2.967L18 11.069l1.24-1.819c1.233-1.81 3.25-2.967 5.51-2.967 3.682 0 6.75 3.099 6.75 7.026 0 1.986-.789 3.769-2.05 5.042l-.011.012L17.98 30.456 7.43 19.282H12a1 1 0 0 0 .919-.606l1.401-3.268 3.536 7.071a1 1 0 0 0 1.708.134l3.451-4.831H25.5a1 1 0 1 0 0-2h-3a1 1 0 0 0-.814.419L18.902 20.1l-3.757-7.514a1 1 0 0 0-1.813.053l-1.99 4.644H5.683C4.938 16.155 4.5 14.788 4.5 13.308zm6.75-10.026c-5.431 0-9.75 4.536-9.75 10.026 0 2.779 1.102 5.305 2.89 7.125l13.586 14.389 13.618-14.374c1.797-1.822 2.906-4.353 2.906-7.14 0-5.49-4.319-10.026-9.75-10.026-2.629 0-5.005 1.069-6.75 2.791-1.745-1.722-4.121-2.791-6.75-2.791z" fill="#425486"/></svg>