<svg xmlns="http://www.w3.org/2000/svg" width="36" height="37" fill="#425486" xmlns:v="https://vecta.io/nano"><path d="M18 14.467c-1.135 0-2.054-.919-2.054-2.054s.919-2.054 2.054-2.054 2.054.919 2.054 2.054-.919 2.054-2.054 2.054zm1.761 11.446h-3.522v-9.391h3.522v9.391z"/><path fill-rule="evenodd" d="M18 3.282a15.02 15.02 0 0 0-15 15c0 2.62.687 5.076 1.869 7.214L2.23 34.052l8.556-2.638c2.138 1.182 4.594 1.869 7.213 1.869a15.02 15.02 0 0 0 15-15 15.02 15.02 0 0 0-15-15zm-12 15a12.02 12.02 0 0 1 12-12 12.02 12.02 0 0 1 12 12 12.02 12.02 0 0 1-12 12c-2.284 0-4.416-.654-6.243-1.774l-.578-.355-4.41 1.36 1.359-4.408-.354-.578C6.654 22.699 6 20.566 6 18.282z"/></svg>