<svg xmlns="http://www.w3.org/2000/svg" width="37" height="37" fill="none" xmlns:v="https://vecta.io/nano"><path fill-rule="evenodd" d="M17.52 27.879c-5.041-.551-8.842-4.732-8.842-9.728 0-2.592 1.011-5.002 2.786-6.802v4.192c0 1.01.832 1.827 1.86 1.827s1.858-.817 1.858-1.827V5.883H5.36c-1.027 0-1.86.818-1.86 1.827s.832 1.827 1.86 1.827h2.45a13.45 13.45 0 0 0-3.114 8.613c0 6.994 5.324 12.848 12.383 13.618a1.85 1.85 0 0 0 .223.013c1.001 0 1.862-.741 1.977-1.742.121-1.074-.666-2.042-1.759-2.161zm14.122-.852h-2.457c1.986-2.401 3.122-5.405 3.122-8.613 0-6.994-5.324-12.848-12.383-13.618-1.09-.123-2.077.654-2.201 1.729s.666 2.042 1.76 2.161c5.04.551 8.842 4.732 8.842 9.728a9.64 9.64 0 0 1-2.788 6.79v-4.179c0-1.009-.832-1.827-1.858-1.827s-1.86.818-1.86 1.827v9.656h9.823c1.026 0 1.858-.818 1.858-1.827s-.832-1.827-1.858-1.827z" fill="#425486"/></svg>